<svg width="346" height="369" viewBox="0 0 346 369" fill="none" xmlns="http://www.w3.org/2000/svg">
<path d="M149.474 0.374506C182.416 -1.72762 215.319 5.04652 244.751 19.9905C274.184 34.9346 299.068 57.5011 316.809 85.3371C334.551 113.173 344.499 145.259 345.617 178.249C346.736 211.239 338.983 243.925 323.167 272.899C307.352 301.872 284.053 326.072 255.7 342.975C227.347 359.878 194.979 368.865 161.97 368.998C128.961 369.132 96.5209 360.407 68.0321 343.735C39.5434 327.062 16.0493 303.051 -0.000127896 274.206L54.8137 243.707C65.4065 262.745 80.9129 278.593 99.7159 289.597C118.519 300.601 139.93 306.36 161.716 306.271C183.502 306.183 204.866 300.252 223.579 289.096C242.293 277.94 257.67 261.967 268.109 242.844C278.547 223.721 283.664 202.148 282.926 180.374C282.188 158.6 275.622 137.423 263.912 119.051C252.203 100.679 235.779 85.7848 216.353 75.9215C196.927 66.0583 175.211 61.5873 153.468 62.9747L149.474 0.374506Z" fill="#16C098"/>
</svg>
