<svg width="280" height="325" viewBox="0 0 280 325" fill="none" xmlns="http://www.w3.org/2000/svg">
<g filter="url(#filter0_d_194_2721)">
<path d="M254.898 279.6C219.941 286.519 183.785 283.613 150.431 271.204C117.077 258.795 87.825 237.367 65.9115 209.29C43.9981 181.213 30.2772 147.583 26.267 112.118C22.2568 76.654 28.1136 40.7388 43.1893 8.34635L124.172 46.0378C116.077 63.4301 112.932 82.7139 115.086 101.756C117.239 120.797 124.606 138.854 136.372 153.93C148.138 169.005 163.844 180.51 181.752 187.173C199.661 193.835 219.074 195.395 237.843 191.68L254.898 279.6Z" fill="#AEC7ED"/>
</g>
<defs>
<filter id="filter0_d_194_2721" x="0.00036683" y="4.20326e-05" width="279.937" height="325" filterUnits="userSpaceOnUse" color-interpolation-filters="sRGB">
<feFlood flood-opacity="0" result="BackgroundImageFix"/>
<feColorMatrix in="SourceAlpha" type="matrix" values="0 0 0 0 0 0 0 0 0 0 0 0 0 0 0 0 0 0 127 0" result="hardAlpha"/>
<feOffset dy="16.6645"/>
<feGaussianBlur stdDeviation="12.4984"/>
<feComposite in2="hardAlpha" operator="out"/>
<feColorMatrix type="matrix" values="0 0 0 0 0.52849 0 0 0 0 0.566891 0 0 0 0 0.9125 0 0 0 0.3 0"/>
<feBlend mode="normal" in2="BackgroundImageFix" result="effect1_dropShadow_194_2721"/>
<feBlend mode="normal" in="SourceGraphic" in2="effect1_dropShadow_194_2721" result="shape"/>
</filter>
</defs>
</svg>
