<svg width="380" height="353" viewBox="0 0 380 353" fill="none" xmlns="http://www.w3.org/2000/svg">
<path d="M0.164618 195.378C-1.25169 161.953 6.46977 128.738 22.5238 99.1976C38.5779 69.6571 62.3765 44.8726 91.4382 27.4284C120.5 9.98426 153.76 0.519386 187.751 0.0207386C221.742 -0.477909 255.218 8.00794 284.689 24.5934C314.16 41.1789 338.546 65.2565 355.305 94.3157C372.064 123.375 380.582 156.351 379.97 189.806C379.358 223.261 369.639 255.969 351.826 284.52C334.014 313.071 308.76 336.419 278.698 352.129L248.542 295.992C268.383 285.623 283.745 269.858 295.501 251.014C307.258 232.17 314.979 210.937 315.383 188.857C315.786 166.776 310.165 145.011 299.104 125.832C288.042 106.652 271.947 90.7606 252.496 79.8139C233.045 68.8673 210.95 63.2665 188.516 63.5957C166.081 63.9248 144.129 70.1717 124.948 81.6851C105.767 93.1985 90.0594 109.557 79.4635 129.054C68.8676 148.551 63.7713 170.473 64.7061 192.534L0.164618 195.378Z" fill="#FF494B"/>
</svg>
