<svg width="382" height="309" viewBox="0 0 382 309" fill="none" xmlns="http://www.w3.org/2000/svg">
<path d="M43.7017 308.736C21.948 283.219 7.66274 252.341 2.33557 219.322C-2.99159 186.303 0.834435 152.352 13.4147 121.009C25.9949 89.6668 46.8686 62.0808 73.8592 41.1277C100.85 20.1746 132.969 6.62177 166.867 1.88254C200.765 -2.85668 235.2 1.39121 266.583 14.1833C297.965 26.9753 325.145 47.8431 345.289 74.6105C365.432 101.378 377.801 133.065 381.105 166.367C384.41 199.668 378.529 233.366 364.076 263.945L301.795 236.369C311.047 216.793 314.811 195.222 312.696 173.904C310.581 152.585 292.52 128.576 279.625 111.44C266.731 94.3053 259.474 84.6723 239.385 76.4834C219.295 68.2946 197.251 65.5753 175.551 68.6091C153.851 71.6429 133.29 80.3188 116.012 93.7319C98.7342 107.145 85.3719 124.804 77.3186 144.868C69.2654 164.932 66.8161 186.666 70.2263 207.803C73.6365 228.94 82.7812 248.707 96.7069 265.042L43.7017 308.736Z" fill="#063664"/>
</svg>
