<svg width="244" height="356" viewBox="0 0 244 356" fill="none" xmlns="http://www.w3.org/2000/svg">
<g filter="url(#filter0_d_194_2722)">
<path d="M61.8543 314.261C40.8998 285.461 28.3528 251.448 25.6015 215.986C22.8501 180.524 30.0016 144.996 46.2648 113.331C62.528 81.6657 87.2688 55.099 117.75 36.5697C148.231 18.0405 183.265 8.2711 218.975 8.34231L218.795 97.6186C199.622 97.5804 183.281 103.382 166.915 113.331C150.549 123.279 138.604 139.526 129.872 156.528C121.14 173.53 116.273 190.549 117.75 209.589C119.227 228.63 126.13 246.186 137.381 261.649L61.8543 314.261Z" fill="#C48E01"/>
</g>
<defs>
<filter id="filter0_d_194_2722" x="0.000366635" y="4.20103e-05" width="244" height="355.971" filterUnits="userSpaceOnUse" color-interpolation-filters="sRGB">
<feFlood flood-opacity="0" result="BackgroundImageFix"/>
<feColorMatrix in="SourceAlpha" type="matrix" values="0 0 0 0 0 0 0 0 0 0 0 0 0 0 0 0 0 0 127 0" result="hardAlpha"/>
<feOffset dy="16.6645"/>
<feGaussianBlur stdDeviation="12.4984"/>
<feComposite in2="hardAlpha" operator="out"/>
<feColorMatrix type="matrix" values="0 0 0 0 0.52849 0 0 0 0 0.566891 0 0 0 0 0.9125 0 0 0 0.3 0"/>
<feBlend mode="normal" in2="BackgroundImageFix" result="effect1_dropShadow_194_2722"/>
<feBlend mode="normal" in="SourceGraphic" in2="effect1_dropShadow_194_2722" result="shape"/>
</filter>
</defs>
</svg>
