<svg width="369" height="285" viewBox="0 0 369 285" fill="none" xmlns="http://www.w3.org/2000/svg">
<path d="M27.6385 281.633C10.2604 253.569 0.729719 221.356 0.0401713 188.354C-0.649381 155.352 7.52749 122.77 23.7181 94.0043C39.9088 65.2387 63.5203 41.3435 92.0904 24.8105C120.661 8.27742 153.143 -0.288021 186.151 0.00732729C219.159 0.302657 251.483 9.44797 279.752 26.4896C308.022 43.5313 331.202 67.8451 346.875 96.8958C362.549 125.947 370.141 158.67 368.861 191.654C367.581 224.639 357.476 256.675 339.598 284.424L286.867 250.451C298.666 232.137 305.336 210.992 306.181 189.222C307.026 167.452 302.015 145.854 291.67 126.68C281.325 107.506 266.026 91.4588 247.368 80.211C228.709 68.9633 207.375 62.9273 185.59 62.7324C163.804 62.5374 142.365 68.1908 123.508 79.1028C104.652 90.0148 89.0679 105.786 78.3818 124.772C67.6958 143.757 62.2989 165.262 62.754 187.044C63.2092 208.825 69.4996 230.086 80.9693 248.609L27.6385 281.633Z" fill="#1C1E1E"/>
</svg>
