<svg width="13" height="26" viewBox="0 0 13 26" fill="none" xmlns="http://www.w3.org/2000/svg">
<g clip-path="url(#clip0_194_2739)">
<path d="M6.50051 0C8.29543 0 9.75051 1.45509 9.75051 3.25C9.75051 5.04491 8.29543 6.5 6.50051 6.5C4.7056 6.5 3.25051 5.04491 3.25051 3.25C3.25051 1.45509 4.7056 0 6.50051 0ZM12.5579 17.9857L10.1204 8.23565C10.0544 7.97197 9.90226 7.7379 9.68803 7.57063C9.4738 7.40336 9.20981 7.3125 8.93801 7.3125H8.36114C7.20785 7.84281 5.8429 7.86571 4.63989 7.3125H4.06301C3.79122 7.3125 3.52722 7.40336 3.313 7.57063C3.09877 7.7379 2.9466 7.97197 2.88067 8.23565L0.443174 17.9857C0.25112 18.7538 0.832463 19.5 1.62551 19.5H4.46926V24.7812C4.46926 25.4544 5.01491 26 5.68801 26H7.31301C7.98612 26 8.53176 25.4544 8.53176 24.7812V19.5H11.3755C12.1672 19.5 12.7502 18.755 12.5579 17.9857Z" fill="#5832E6"/>
</g>
<defs>
<clipPath id="clip0_194_2739">
<rect width="13" height="26" fill="white"/>
</clipPath>
</defs>
</svg>
