<svg width="20" height="20" viewBox="0 0 20 20" fill="none" xmlns="http://www.w3.org/2000/svg">
<path d="M9.22209 6.66993L9.37542 6.66577H15.6254C16.3171 6.66571 16.9825 6.93027 17.4853 7.40519C17.9882 7.88012 18.2902 8.52941 18.3296 9.21993L18.3338 9.3741V15.6241C18.3338 16.3159 18.0691 16.9815 17.594 17.4843C17.1189 17.9871 16.4694 18.2891 15.7788 18.3283L15.6254 18.3324H9.37542C8.68364 18.3325 8.01807 18.0678 7.51523 17.5927C7.01239 17.1176 6.71042 16.4681 6.67126 15.7774L6.66709 15.6249V9.37494C6.66704 8.68315 6.93172 8.01758 7.40682 7.51474C7.88191 7.01191 8.53142 6.70993 9.22209 6.67077V6.66993ZM15.6254 7.91577H9.37542C9.00943 7.91578 8.65682 8.05341 8.3876 8.30133C8.11837 8.54926 7.95221 8.88935 7.92209 9.2541L7.91709 9.3741V15.6241C7.91712 15.9902 8.05487 16.3429 8.30296 16.6122C8.55106 16.8814 8.89136 17.0475 9.25626 17.0774L9.37542 17.0824H15.6254C15.9915 17.0824 16.3443 16.9447 16.6135 16.6966C16.8828 16.4485 17.0488 16.1082 17.0788 15.7433L17.0838 15.6241V9.3741C17.0838 8.98733 16.9301 8.61639 16.6566 8.3429C16.3831 8.06941 16.0122 7.91577 15.6254 7.91577ZM12.5004 9.1666C12.6662 9.1666 12.8252 9.23245 12.9424 9.34966C13.0596 9.46687 13.1254 9.62584 13.1254 9.7916V11.8733H15.2088C15.3745 11.8733 15.5335 11.9391 15.6507 12.0563C15.7679 12.1735 15.8338 12.3325 15.8338 12.4983C15.8338 12.664 15.7679 12.823 15.6507 12.9402C15.5335 13.0574 15.3745 13.1233 15.2088 13.1233H13.1254V15.2083C13.1254 15.374 13.0596 15.533 12.9424 15.6502C12.8252 15.7674 12.6662 15.8333 12.5004 15.8333C12.3347 15.8333 12.1757 15.7674 12.0585 15.6502C11.9413 15.533 11.8754 15.374 11.8754 15.2083V13.1233H9.79209C9.62633 13.1233 9.46736 13.0574 9.35015 12.9402C9.23294 12.823 9.16709 12.664 9.16709 12.4983C9.16709 12.3325 9.23294 12.1735 9.35015 12.0563C9.46736 11.9391 9.62633 11.8733 9.79209 11.8733H11.8754V9.7916C11.8754 9.62584 11.9413 9.46687 12.0585 9.34966C12.1757 9.23245 12.3347 9.1666 12.5004 9.1666ZM12.9854 3.52743L13.0288 3.67493L13.6063 5.8316H12.3121L11.8221 3.99827C11.7726 3.81318 11.6871 3.63966 11.5705 3.48762C11.4539 3.33559 11.3085 3.20803 11.1425 3.11222C10.9766 3.01641 10.7934 2.95423 10.6035 2.92925C10.4135 2.90426 10.2205 2.91696 10.0354 2.9666L3.99876 4.58493C3.64636 4.67943 3.34219 4.90259 3.14627 5.21036C2.95034 5.51813 2.87689 5.88816 2.94042 6.24744L2.96709 6.37077L4.58542 12.4074C4.66133 12.6911 4.82111 12.9452 5.04384 13.1366C5.26658 13.328 5.54189 13.4476 5.83376 13.4799V14.7349C5.29194 14.7026 4.77231 14.5084 4.34217 14.1774C3.91203 13.8463 3.59121 13.3938 3.42126 12.8783L3.37792 12.7316L1.76042 6.6941C1.58126 6.02608 1.66445 5.31482 1.99295 4.70618C2.32144 4.09754 2.87034 3.63763 3.52709 3.42077L3.67542 3.37743L9.71209 1.75993C10.3801 1.58077 11.0914 1.66396 11.7 1.99246C12.3087 2.32095 12.7686 2.86985 12.9854 3.5266V3.52743Z" fill="#133E76"/>
</svg>
