<svg width="47" height="47" viewBox="0 0 47 47" fill="none" xmlns="http://www.w3.org/2000/svg">
<path fill-rule="evenodd" clip-rule="evenodd" d="M7.83235 13.2188H39.1657C39.9764 13.2188 40.6344 12.5607 40.6344 11.75C40.6344 10.9392 39.9764 10.2812 39.1657 10.2812H7.83235C7.0216 10.2812 6.3636 10.9392 6.3636 11.75C6.3636 12.5607 7.0216 13.2188 7.83235 13.2188Z" fill="#053563"/>
<path fill-rule="evenodd" clip-rule="evenodd" d="M7.83235 24.9688H39.1657C39.9764 24.9688 40.6344 24.3107 40.6344 23.5C40.6344 22.6893 39.9764 22.0312 39.1657 22.0312H7.83235C7.0216 22.0312 6.3636 22.6893 6.3636 23.5C6.3636 24.3107 7.0216 24.9688 7.83235 24.9688Z" fill="#053563"/>
<path fill-rule="evenodd" clip-rule="evenodd" d="M7.83235 36.7188H39.1657C39.9764 36.7188 40.6344 36.0607 40.6344 35.25C40.6344 34.4393 39.9764 33.7812 39.1657 33.7812H7.83235C7.0216 33.7812 6.3636 34.4393 6.3636 35.25C6.3636 36.0607 7.0216 36.7188 7.83235 36.7188Z" fill="#053563"/>
</svg>
