<svg width="81" height="102" viewBox="0 0 81 102" fill="none" xmlns="http://www.w3.org/2000/svg">
<g clip-path="url(#clip0_194_1922)">
<path d="M77.6684 37.495C73.376 31.0861 69.0145 24.7221 64.6742 18.3449C63.5359 16.6687 62.0014 16.6766 60.8658 18.3396C59.3791 20.5172 57.9058 22.7054 56.4218 24.8857C56.2303 25.1655 56.0202 25.4348 55.7809 25.7621C55.5149 25.382 55.3208 25.118 55.1373 24.8461C50.0444 17.3445 44.9594 9.83748 39.8479 2.34899C39.4357 1.74189 38.84 1.2562 38.3293 0.715088H36.9358C36.4092 1.32483 35.8135 1.89234 35.3614 2.55488C26.0133 16.2886 16.721 30.0593 7.33306 43.7667C1.47156 52.3189 -0.703895 61.6551 1.18434 71.8017C4.92357 91.9021 24.5798 105.108 44.7866 101.225C63.5944 97.6089 76.6259 80.1005 74.5754 61.1958C74.5036 60.5333 74.6339 60.0555 75.1525 59.5514C81.2055 53.6625 82.2799 44.3843 77.6684 37.495ZM70.7378 66.9475C70.1128 75.6132 66.6954 83.0199 60.3126 88.9774C54.7516 94.1695 48.1242 97.081 40.4862 97.7646C24.4096 99.2032 9.53511 88.6237 5.63099 73.2297C3.22416 63.7404 4.73741 54.8212 10.2319 46.6755C19.1332 33.4802 28.1143 20.3377 37.0608 7.17678C37.2416 6.90755 37.4331 6.64887 37.6831 6.29516C38.2841 7.17415 38.84 7.97922 39.3905 8.78957C43.869 15.3885 48.337 21.9928 52.8421 28.5732C53.2703 29.1988 53.2544 29.6185 52.8342 30.2177C51.2092 32.5405 49.6348 34.895 48.0391 37.239C40.8266 47.829 47.3264 62.4919 60.06 64.3686C63.4162 64.8649 66.6555 64.4795 69.7777 63.1544C70.0197 63.0515 70.2671 62.9538 70.5117 62.8588C70.5383 62.8482 70.5729 62.864 70.7511 62.8878C70.7511 64.2261 70.8362 65.5934 70.7378 66.9475ZM65.5837 60.2852C58.0521 61.9745 50.414 56.6821 49.2811 49.0274C48.7572 45.4771 49.5391 42.2489 51.5443 39.2926C55.0389 34.1375 58.5387 28.985 62.0386 23.8325C62.254 23.5132 62.4828 23.2017 62.778 22.782C64.3736 25.1259 65.9082 27.3775 67.44 29.6317C69.6235 32.8467 71.8069 36.0644 73.9903 39.282C79.4955 47.3829 75.1951 58.1286 65.5837 60.2852Z" fill="#133E76"/>
<path d="M73.9916 39.281C71.8082 36.0634 69.6247 32.8457 67.4413 29.6307C65.9094 27.3765 64.3749 25.125 62.7792 22.781C62.484 23.2007 62.2553 23.5122 62.0399 23.8316C58.54 28.984 55.0401 34.1365 51.5456 39.2916C49.5403 42.2479 48.7584 45.4761 49.2824 49.0264C50.4153 56.6812 58.0533 61.9735 65.585 60.2842C75.1964 58.1276 79.4967 47.3819 73.9916 39.281ZM59.298 55.0235C58.5506 56.0345 57.3539 56.1216 56.1465 55.2479C52.1413 52.3628 50.6015 47.015 52.4658 42.4908C52.8487 41.559 53.4391 40.9308 54.5348 40.9677C56.0667 40.9862 56.8699 42.3271 56.3034 43.9399C55.463 46.3393 55.6625 48.6014 57.2502 50.6497C57.6278 51.1354 58.1198 51.5498 58.6038 51.9405C59.7634 52.8775 60.0373 54.0231 59.298 55.0235ZM62.7659 57.6499C61.6649 57.6288 60.7899 56.726 60.7926 55.6121C60.7979 54.4718 61.6357 53.6272 62.7819 53.6166C63.984 53.606 64.851 54.4481 64.8456 55.628C64.843 56.7894 63.9334 57.6736 62.7659 57.6499Z" fill="#FFB800" fill-opacity="0.7"/>
<path d="M8.86008 65.6348C8.95848 59.8224 10.5754 54.5644 13.9477 49.8686C14.8173 48.6597 15.9955 48.335 16.9901 49.0239C18.0114 49.7313 18.1018 50.8954 17.2321 52.1518C11.1712 60.8862 11.4398 71.8114 17.9662 80.0548C20.8464 83.6948 24.5643 86.1866 28.987 87.6516C30.3062 88.0897 30.9418 89.0004 30.6944 90.043C30.3913 91.3311 29.2477 91.9013 27.8249 91.4473C23.4154 90.0377 19.6017 87.6542 16.429 84.3204C11.4291 79.0676 8.96912 72.7749 8.85742 65.6322L8.86008 65.6348Z" fill="#133E76"/>
<path d="M34.7911 93.229C33.6529 93.1868 32.8737 92.321 32.9189 91.149C32.9588 90.08 33.8656 89.2432 34.9347 89.2934C36.0438 89.3462 36.9666 90.3044 36.9107 91.3444C36.8496 92.4398 35.9161 93.2713 34.7938 93.229H34.7911Z" fill="#133E76"/>
<path d="M59.2971 55.0244C58.5498 56.0353 57.353 56.1224 56.1456 55.2487C52.1405 52.3637 50.6006 47.0159 52.4649 42.4916C52.8479 41.5599 53.4383 40.9316 54.534 40.9686C56.0659 40.9871 56.869 42.328 56.3025 43.9408C55.4622 46.3401 55.6616 48.6023 57.2493 50.6506C57.627 51.1363 58.119 51.5507 58.603 51.9413C59.7625 52.8784 60.0365 54.024 59.2971 55.0244Z" fill="#133E76"/>
<path d="M64.8451 55.6286C64.8424 56.7901 63.9328 57.6743 62.7653 57.6506C61.6643 57.6294 60.7893 56.7267 60.792 55.6128C60.7973 54.4725 61.6351 53.6278 62.7813 53.6173C63.9834 53.6067 64.8504 54.4488 64.8451 55.6286Z" fill="#133E76"/>
</g>
<defs>
<clipPath id="clip0_194_1922">
<rect width="79.9999" height="101.188" fill="white" transform="translate(0.522461 0.715088)"/>
</clipPath>
</defs>
</svg>
