<svg width="80" height="102" viewBox="0 0 80 102" fill="none" xmlns="http://www.w3.org/2000/svg">
<g clip-path="url(#clip0_194_1922)">
<path d="M77.1459 36.7799C72.8535 30.371 68.492 24.007 64.1517 17.6298C63.0135 15.9536 61.4789 15.9616 60.3433 17.6245C58.8567 19.8021 57.3833 21.9904 55.8993 24.1707C55.7079 24.4504 55.4978 24.7197 55.2584 25.047C54.9925 24.6669 54.7983 24.4029 54.6148 24.1311C49.5219 16.6294 44.437 9.1224 39.3254 1.6339C38.9132 1.0268 38.3175 0.541114 37.8069 0H36.4133C35.8867 0.609743 35.291 1.17725 34.8389 1.83979C25.4908 15.5735 16.1986 29.3442 6.8106 43.0516C0.949101 51.6038 -1.22636 60.94 0.661877 71.0866C4.40111 91.187 24.0573 104.393 44.2641 100.51C63.072 96.8938 76.1034 79.3854 74.053 60.4807C73.9812 59.8182 74.1115 59.3404 74.6301 58.8363C80.6831 52.9474 81.7575 43.6692 77.1459 36.7799ZM70.2153 66.2324C69.5904 74.8981 66.1729 82.3048 59.7902 88.2624C54.2292 93.4544 47.6017 96.3659 39.9637 97.0495C23.8871 98.4881 9.01265 87.9086 5.10853 72.5146C2.7017 63.0253 4.21495 54.1062 9.70944 45.9604C18.6107 32.7651 27.5918 19.6227 36.5383 6.4617C36.7191 6.19246 36.9106 5.93378 37.1606 5.58008C37.7617 6.45906 38.3175 7.26413 38.868 8.07448C43.3466 14.6734 47.8145 21.2777 52.3197 27.8582C52.7478 28.4837 52.7319 28.9034 52.3117 29.5026C50.6867 31.8254 49.1123 34.1799 47.5166 36.5239C40.3041 47.1139 46.8039 61.7768 59.5375 63.6535C62.8938 64.1498 66.133 63.7644 69.2553 62.4393C69.4973 62.3364 69.7446 62.2387 69.9893 62.1437C70.0159 62.1331 70.0504 62.149 70.2286 62.1727C70.2286 63.511 70.3137 64.8783 70.2153 66.2324ZM65.0613 59.5701C57.5296 61.2594 49.8916 55.9671 48.7586 48.3123C48.2347 44.762 49.0166 41.5338 51.0218 38.5775C54.5164 33.4224 58.0163 28.2699 61.5162 23.1175C61.7316 22.7981 61.9603 22.4866 62.2555 22.0669C63.8512 24.4109 65.3857 26.6624 66.9176 28.9166C69.101 32.1316 71.2844 35.3493 73.4679 38.5669C78.973 46.6678 74.6726 57.4136 65.0613 59.5701Z" fill="#133E76"/>
<path d="M73.4691 38.5659C71.2857 35.3483 69.1023 32.1306 66.9188 28.9156C65.387 26.6614 63.8525 24.4099 62.2568 22.0659C61.9616 22.4856 61.7328 22.7971 61.5174 23.1165C58.0175 28.2689 54.5177 33.4214 51.0231 38.5765C49.0179 41.5328 48.236 44.761 48.7599 48.3113C49.8928 55.9661 57.5309 61.2584 65.0625 59.5691C74.6739 57.4126 78.9743 46.6668 73.4691 38.5659ZM58.7755 54.3084C58.0282 55.3194 56.8314 55.4065 55.624 54.5328C51.6188 51.6477 50.079 46.2999 51.9433 41.7757C52.3263 40.8439 52.9167 40.2157 54.0124 40.2526C55.5442 40.2711 56.3474 41.612 55.7809 43.2248C54.9405 45.6242 55.14 47.8863 56.7277 49.9346C57.1053 50.4203 57.5974 50.8347 58.0814 51.2254C59.2409 52.1624 59.5148 53.308 58.7755 54.3084ZM62.2435 56.9348C61.1424 56.9137 60.2675 56.0109 60.2701 54.897C60.2754 53.7567 61.1132 52.9121 62.2594 52.9015C63.4615 52.891 64.3285 53.733 64.3232 54.9129C64.3205 56.0743 63.411 56.9585 62.2435 56.9348Z" fill="#FFB800" fill-opacity="0.7"/>
<path d="M8.33762 64.9197C8.43602 59.1074 10.053 53.8493 13.4252 49.1535C14.2949 47.9446 15.473 47.6199 16.4677 48.3088C17.4889 49.0162 17.5793 50.1803 16.7097 51.4367C10.6487 60.1711 10.9173 71.0963 17.4437 79.3398C20.3239 82.9797 24.0419 85.4715 28.4646 86.9365C29.7837 87.3746 30.4193 88.2853 30.172 89.3279C29.8688 90.6161 28.7252 91.1862 27.3024 90.7322C22.893 89.3226 19.0793 86.9391 15.9065 83.6053C10.9067 78.3525 8.44666 72.0598 8.33496 64.9171L8.33762 64.9197Z" fill="#133E76"/>
<path d="M34.2687 92.5139C33.1304 92.4717 32.3512 91.6059 32.3964 90.4339C32.4363 89.3649 33.3432 88.5282 34.4123 88.5783C35.5213 88.6311 36.4441 89.5893 36.3883 90.6293C36.3271 91.7247 35.3936 92.5562 34.2713 92.5139H34.2687Z" fill="#133E76"/>
<path d="M58.7747 54.3093C58.0273 55.3202 56.8306 55.4073 55.6232 54.5336C51.618 51.6486 50.0782 46.3008 51.9425 41.7765C52.3254 40.8448 52.9158 40.2165 54.0115 40.2535C55.5434 40.272 56.3466 41.6129 55.7801 43.2257C54.9397 45.625 55.1392 47.8872 56.7269 49.9355C57.1045 50.4212 57.5965 50.8356 58.0805 51.2262C59.2401 52.1633 59.514 53.3089 58.7747 54.3093Z" fill="#133E76"/>
<path d="M64.3226 54.9136C64.3199 56.075 63.4104 56.9592 62.2429 56.9355C61.1418 56.9144 60.2669 56.0116 60.2695 54.8977C60.2749 53.7574 61.1126 52.9128 62.2588 52.9022C63.4609 52.8916 64.3279 53.7337 64.3226 54.9136Z" fill="#133E76"/>
</g>
<defs>
<clipPath id="clip0_194_1922">
<rect width="79.9999" height="101.188" fill="white"/>
</clipPath>
</defs>
</svg>
