<svg width="146" height="20" viewBox="0 0 146 20" fill="none" xmlns="http://www.w3.org/2000/svg">
<path d="M41.397 19.7768C46.8061 19.7768 51.1911 15.3823 51.1911 9.96126C51.1911 4.54027 46.8061 0.14569 41.397 0.14569C35.9879 0.14569 31.603 4.54027 31.603 9.96126C31.603 15.3823 35.9879 19.7768 41.397 19.7768Z" fill="white"/>
<path d="M41.3992 4.9008C43.0388 4.9008 43.2419 4.9008 43.8948 4.92988C44.4897 4.95897 44.8234 5.06076 45.0411 5.14801C45.3313 5.26434 45.5344 5.39521 45.7521 5.61334C45.9697 5.83146 46.1003 6.03504 46.2164 6.32587C46.3034 6.544 46.405 6.86391 46.434 7.47466C46.463 8.12903 46.463 8.31807 46.463 9.97581C46.463 11.619 46.463 11.8226 46.434 12.477C46.405 13.0732 46.3034 13.4076 46.2164 13.6258C46.1003 13.9166 45.9697 14.1202 45.7521 14.3383C45.5344 14.5564 45.3313 14.6873 45.0411 14.8036C44.8234 14.8909 44.5042 14.9927 43.8948 15.0217C43.2419 15.0508 43.0533 15.0508 41.3992 15.0508C39.7596 15.0508 39.5564 15.0508 38.9035 15.0217C38.3086 14.9927 37.9749 14.8909 37.7572 14.8036C37.467 14.6873 37.2639 14.5564 37.0463 14.3383C36.8286 14.1202 36.698 13.9166 36.5819 13.6258C36.4949 13.4076 36.3933 13.0877 36.3643 12.477C36.3353 11.8226 36.3353 11.6336 36.3353 9.97581C36.3353 8.33261 36.3353 8.12903 36.3643 7.47466C36.3933 6.87845 36.4949 6.544 36.5819 6.32587C36.698 6.03504 36.8286 5.83146 37.0463 5.61334C37.2639 5.39521 37.467 5.26434 37.7572 5.14801C37.9749 5.06076 38.2941 4.95897 38.9035 4.92988C39.5564 4.9008 39.7451 4.9008 41.3992 4.9008ZM41.3992 3.7811C39.7305 3.7811 39.5129 3.7811 38.86 3.82472C38.207 3.8538 37.7572 3.9556 37.3655 4.11555C36.9592 4.27551 36.611 4.47909 36.2772 4.82809C35.929 5.17709 35.7259 5.51155 35.5663 5.91871C35.4067 6.31133 35.3051 6.76212 35.2761 7.41649C35.2471 8.07087 35.2325 8.28899 35.2325 9.96127C35.2325 11.6336 35.2325 11.8517 35.2761 12.506C35.3051 13.1604 35.4067 13.6112 35.5663 14.0038C35.7259 14.411 35.929 14.76 36.2772 15.0945C36.6255 15.4435 36.9592 15.647 37.3655 15.807C37.7572 15.967 38.207 16.0687 38.86 16.0978C39.5129 16.1269 39.7305 16.1414 41.3992 16.1414C43.0678 16.1414 43.2854 16.1414 43.9383 16.0978C44.5913 16.0687 45.0411 15.967 45.4328 15.807C45.8391 15.647 46.1873 15.4435 46.5211 15.0945C46.8693 14.7455 47.0724 14.411 47.232 14.0038C47.3916 13.6112 47.4932 13.1604 47.5222 12.506C47.5513 11.8517 47.5658 11.6336 47.5658 9.96127C47.5658 8.28899 47.5658 8.07087 47.5222 7.41649C47.4932 6.76212 47.3916 6.31133 47.232 5.91871C47.0724 5.51155 46.8693 5.16255 46.5211 4.82809C46.1728 4.47909 45.8391 4.27551 45.4328 4.11555C45.0411 3.9556 44.5913 3.8538 43.9383 3.82472C43.2854 3.79564 43.0678 3.7811 41.3992 3.7811Z" fill="#133E76"/>
<path d="M41.3975 6.7917C39.6418 6.7917 38.2343 8.21677 38.2343 9.96176C38.2343 11.7213 39.6563 13.1318 41.3975 13.1318C43.1531 13.1318 44.5606 11.7068 44.5606 9.96176C44.5606 8.21677 43.1386 6.7917 41.3975 6.7917ZM41.3975 12.0267C40.2657 12.0267 39.3371 11.1105 39.3371 9.96176C39.3371 8.81298 40.2512 7.89686 41.3975 7.89686C42.5292 7.89686 43.4578 8.81298 43.4578 9.96176C43.4578 11.1105 42.5292 12.0267 41.3975 12.0267Z" fill="#133E76"/>
<path d="M44.6924 7.41644C45.1011 7.41644 45.4324 7.08441 45.4324 6.67482C45.4324 6.26524 45.1011 5.9332 44.6924 5.9332C44.2837 5.9332 43.9524 6.26524 43.9524 6.67482C43.9524 7.08441 44.2837 7.41644 44.6924 7.41644Z" fill="#133E76"/>
<path d="M73 19.6311C78.4091 19.6311 82.7941 15.2366 82.7941 9.81557C82.7941 4.39458 78.4091 0 73 0C67.5909 0 63.206 4.39458 63.206 9.81557C63.206 15.2366 67.5909 19.6311 73 19.6311Z" fill="white"/>
<path d="M76.0195 5.20671H77.5873L74.162 9.02379L78.1916 14.218H75.0365L72.5652 11.0677L69.7376 14.218H68.1688L71.8325 10.1352L67.9668 5.20671H71.2021L73.4359 8.08616L76.0195 5.20671ZM75.4692 13.303H76.338L70.73 6.07364H69.7978L75.4692 13.303Z" fill="#133E76"/>
<path d="M136.206 19.6311C141.615 19.6311 146 15.2366 146 9.81557C146 4.39458 141.615 0 136.206 0C130.797 0 126.412 4.39458 126.412 9.81557C126.412 15.2366 130.797 19.6311 136.206 19.6311Z" fill="white"/>
<path d="M142.458 6.66001C142.313 6.09289 141.863 5.65664 141.297 5.49669C140.281 5.2204 136.189 5.2204 136.189 5.2204C136.189 5.2204 132.112 5.2204 131.082 5.49669C130.516 5.6421 130.081 6.09289 129.921 6.66001C129.646 7.67792 129.646 9.81554 129.646 9.81554C129.646 9.81554 129.646 11.9386 129.921 12.9711C130.066 13.5382 130.516 13.9744 131.082 14.1344C132.098 14.4107 136.189 14.4107 136.189 14.4107C136.189 14.4107 140.267 14.4107 141.297 14.1344C141.863 13.989 142.298 13.5382 142.458 12.9711C142.733 11.9532 142.733 9.81554 142.733 9.81554C142.733 9.81554 142.733 7.67792 142.458 6.66001ZM134.898 11.7787V7.85242L138.293 9.81554L134.898 11.7787Z" fill="#133E76"/>
<path d="M19.5881 9.96126C19.5881 4.53725 15.2061 0.14569 9.79403 0.14569C4.38192 0.14569 0 4.53725 0 9.96126C0 14.8618 3.58389 18.9189 8.27051 19.6605V12.8114H5.77485V9.97581H8.25601V7.80911C8.25601 5.35158 9.72148 3.98467 11.956 3.98467C13.0297 3.98467 14.1469 4.17371 14.1469 4.17371V6.58761H12.9136C11.6948 6.58761 11.3175 7.34378 11.3175 8.11448V9.96126H14.0309L13.5956 12.7969H11.3175V19.6605C16.0042 18.9334 19.5881 14.8618 19.5881 9.96126Z" fill="white"/>
<path d="M13.5955 12.8113L14.0308 9.97574H11.3175V8.12895C11.3175 7.35825 11.6947 6.60209 12.9136 6.60209H14.1469V4.18818C14.1469 4.18818 13.0296 3.99914 11.9559 3.99914C9.72143 3.99914 8.25596 5.35151 8.25596 7.82358V9.99028H5.7748V12.8113H8.25596V19.675C8.74929 19.7477 9.27163 19.7913 9.77947 19.7913C10.2873 19.7913 10.8097 19.7477 11.303 19.675V12.8113H13.5955Z" fill="#133E76"/>
<path d="M104.603 19.7768C110.012 19.7768 114.397 15.3823 114.397 9.96126C114.397 4.54027 110.012 0.14569 104.603 0.14569C99.194 0.14569 94.809 4.54027 94.809 9.96126C94.809 15.3823 99.194 19.7768 104.603 19.7768Z" fill="white"/>
<path d="M109.376 5.97724C109.333 5.86091 109.289 5.83183 109.231 5.81728C109.072 5.75912 108.825 5.84637 108.825 5.84637C108.825 5.84637 99.6693 9.14731 99.1469 9.51085C99.0308 9.58356 99.0018 9.64172 98.9728 9.68535C98.8857 9.9471 99.1614 10.0634 99.1614 10.0634L101.527 10.8341C101.527 10.8341 101.614 10.8487 101.643 10.8341C102.179 10.4997 107.04 7.41686 107.316 7.31507C107.359 7.30053 107.388 7.31507 107.388 7.34415C107.272 7.73677 103.05 11.503 103.05 11.503C103.05 11.503 103.036 11.5176 103.021 11.5467L102.803 13.8879C102.803 13.8879 102.716 14.6004 103.427 13.8879C103.935 13.3789 104.428 12.9572 104.661 12.7536C105.473 13.3207 106.344 13.9315 106.721 14.2659C106.91 14.4259 107.069 14.455 107.2 14.455C107.563 14.4404 107.664 14.0478 107.664 14.0478C107.664 14.0478 109.333 7.31507 109.391 6.41349C109.391 6.32624 109.405 6.26808 109.405 6.20991C109.391 6.10812 109.391 6.02087 109.376 5.97724Z" fill="#133E76"/>
</svg>
