<svg width="118" height="109" viewBox="0 0 118 109" fill="none" xmlns="http://www.w3.org/2000/svg">
<g clip-path="url(#clip0_194_4399)">
<path d="M116.477 40.4441C111.615 36.8333 106.756 33.214 101.87 29.6317C101.302 29.2166 101.075 28.8157 101.078 28.1419C101.109 22.6831 101.099 17.2214 101.093 11.7626C101.093 9.97145 100.24 9.16968 98.3153 9.16684C95.2551 9.15831 92.1917 9.15831 89.1315 9.16684C87.1332 9.17253 86.2983 9.94586 86.2799 11.8309C86.2646 13.4969 86.2799 15.163 86.2738 16.8291C86.2738 17.1646 86.24 17.5001 86.2124 18.0118C83.3915 15.9221 80.715 13.9433 78.0384 11.9588C73.649 8.70625 69.3119 5.39116 64.8427 2.23245C63.4768 1.26862 61.7548 0.734116 60.1986 0.00343156H56.9818C52.1535 1.82872 48.7372 5.47361 44.6486 8.25135C42.2483 9.88331 39.9769 11.6773 37.6502 13.4003C36.3211 14.3868 36.1277 15.2028 36.8798 16.6386C38.2702 17.7957 39.142 17.8014 40.7074 16.6414C45.6094 13.0164 50.5082 9.38576 55.4102 5.76077C58.1328 3.74783 59.5141 3.73646 62.292 5.79204C78.5786 17.8498 94.8591 29.9188 111.14 41.9851C111.437 42.204 111.723 42.4371 112.067 42.7044C110.36 44.6775 108.669 46.6336 106.941 48.6352C102.944 45.6783 99.0305 42.784 95.1231 39.8869C83.6494 31.3887 72.1818 22.8878 60.7081 14.3925C59.2225 13.2922 58.406 13.2951 56.9419 14.3811C41.7019 25.6684 26.465 36.9584 11.2281 48.2485C11.0808 48.3565 10.9304 48.4561 10.6879 48.6238C8.97208 46.6365 7.28387 44.6832 5.55268 42.6817C9.87758 39.4831 14.1503 36.3244 18.4199 33.1629C20.2401 31.8124 22.0757 30.4761 23.8713 29.0972C25.2127 28.068 25.3201 27.2918 24.4515 25.8503C23.0641 24.8296 22.2721 24.8069 20.8817 25.8361C14.2731 30.7178 7.67062 35.6108 1.07432 40.5067C0.681424 40.7995 0.356059 41.1691 0 41.5018V42.9916C2.86996 46.3493 5.71537 49.7241 8.61909 53.0534C9.44171 53.9973 10.6143 54.0712 11.7039 53.3633C12.5112 52.8402 13.2632 52.2431 14.2454 51.5295V95.9875C14.2454 98.0459 14.9883 98.7453 17.1799 98.7482H24.3532C24.3532 101.37 24.3532 103.914 24.3532 106.456C24.3532 107.94 25.096 108.844 26.3914 108.961C27.791 109.086 28.7058 108.335 28.9851 106.84C29.0311 104.326 28.8193 101.782 29.1784 99.3083C29.7709 95.2028 33.0276 92.3199 37.4077 91.5266C40.7719 90.9154 44.1299 90.2728 47.5032 89.6985C47.847 89.6416 48.3964 89.8435 48.6267 90.0994C50.9994 92.7207 53.9737 94.2617 57.6724 94.5432C62.0004 94.873 65.6408 93.5424 68.5169 90.5486C69.1952 89.8407 69.7661 89.4341 70.8128 89.7923C71.5127 90.0311 72.28 90.1022 73.0566 90.2529C73.0075 93.6448 74.5852 96.2633 77.1237 98.5321C80.1533 101.239 83.0723 104.051 86.0374 106.817C87.8975 108.602 90.0984 109.507 92.7504 108.705C93.7296 108.409 94.7026 107.846 95.4454 107.181C98.9078 104.073 102.333 100.926 105.685 97.7161C110.624 92.9908 109.82 86.028 104 82.2523C103.715 82.0675 103.417 81.6666 103.417 81.3653C103.389 71.5451 103.395 61.7249 103.405 51.9048C103.405 51.8508 103.463 51.7939 103.552 51.6404C104.267 52.1663 104.958 52.6952 105.67 53.1956C106.99 54.1167 108.162 54.0457 109.184 52.88C111.843 49.8577 114.476 46.8184 117.076 43.7564C118.067 42.5935 117.819 41.4392 116.474 40.4441H116.477ZM96.4092 25.549C95.4884 24.8694 94.6903 24.1046 93.7326 23.6099C91.3814 22.3959 90.5741 20.6446 90.9179 18.1995C91.1328 16.6755 90.9578 15.1061 90.9578 13.5026H96.4092V25.549ZM52.4942 87.6458C53.3076 86.6905 54.0228 85.7778 54.8301 84.9391C55.0726 84.6889 55.5698 84.5411 55.9566 84.5325C57.8535 84.4927 59.7566 84.5439 61.6535 84.4984C62.2459 84.4842 62.602 84.5695 62.9611 85.0613C63.618 85.9598 64.4099 86.7729 65.1527 87.6315C61.6597 91.2793 56.0272 91.2878 52.4942 87.6458ZM39.5072 54.185C39.5072 54.185 39.5103 54.1821 39.5072 54.1821C39.5011 53.9006 39.5011 53.6192 39.5103 53.3434C39.5103 53.2382 39.5134 53.1358 39.5226 53.0335C39.5226 52.9681 39.5257 52.9027 39.5318 52.8373C39.5349 52.7435 39.541 52.6497 39.5502 52.5559C39.5533 52.516 39.5564 52.4791 39.5594 52.4393C39.5686 52.3312 39.5778 52.2232 39.5901 52.1152C39.6024 51.9986 39.6147 51.882 39.63 51.7683C39.6484 51.6261 39.6699 51.484 39.6914 51.3447C39.7252 51.1314 39.7651 50.9182 39.808 50.7107C39.8295 50.6111 39.851 50.5145 39.8725 50.4178C39.9032 50.2842 39.9339 50.1506 39.9707 50.0198C40.0045 49.8861 40.0413 49.7554 40.0812 49.6274C40.1979 49.2322 40.3329 48.8484 40.4864 48.4703C40.5171 48.3907 40.5509 48.3111 40.5877 48.2314C40.6153 48.1661 40.6429 48.1035 40.6706 48.041C40.7105 47.9471 40.7534 47.8562 40.7995 47.7652C40.9192 47.5121 41.0512 47.2648 41.1893 47.0203C41.2691 46.881 41.352 46.7416 41.4379 46.6052C41.4533 46.5767 41.4717 46.5512 41.4871 46.5256C41.5515 46.4204 41.619 46.318 41.6896 46.2157C41.7173 46.173 41.748 46.1304 41.7787 46.0877C41.8585 45.9683 41.9444 45.8489 42.0334 45.7295C42.2391 45.4537 42.457 45.1808 42.6903 44.9135C42.7977 44.7913 42.9082 44.6718 43.0187 44.5524C43.0433 44.524 43.0709 44.4984 43.0955 44.47C43.206 44.3563 43.3165 44.2425 43.43 44.1317C43.5589 44.0037 43.694 43.8786 43.8291 43.7535C44.0685 43.5346 44.314 43.3242 44.5749 43.1167C44.6363 43.0626 44.7008 43.0143 44.7653 42.9631C44.8512 42.8949 44.9402 42.8295 45.0292 42.7613C45.0906 42.7158 45.1551 42.6674 45.2195 42.6191C45.3546 42.5224 45.4897 42.4258 45.6308 42.3291C48.0588 40.663 50.806 39.7646 53.8417 39.7902C56.3986 39.8129 58.9739 39.7646 61.5 40.0575C63.839 40.3275 65.7022 41.6325 67.2615 43.2787C67.7004 43.745 67.7127 44.143 67.4303 44.6861C66.0858 47.2648 63.8942 48.5584 60.7971 48.6181C58.4705 48.6636 56.1162 48.5954 53.8263 48.9195C49.1546 49.5762 45.6186 51.9759 43.0341 55.6122C42.6166 56.2036 42.2913 56.8774 41.7664 57.3664C41.4287 57.6792 40.7442 57.9237 40.3145 57.8242C39.9707 57.7446 39.63 57.1248 39.5533 56.704C39.5042 56.4225 39.4888 56.1382 39.4888 55.8482C39.4888 55.6378 39.495 55.4303 39.5042 55.2199C39.5103 55.1118 39.5134 55.0066 39.5164 54.8986C39.5195 54.7934 39.5195 54.691 39.5195 54.5858C39.5134 54.4522 39.5072 54.3186 39.5072 54.185ZM40.8486 62.2708C43.6848 62.1628 45.241 60.5536 46.5149 58.5406C49.0042 54.6001 52.7367 52.7776 57.6632 52.9169C60.3336 52.9937 63.0317 53.0875 65.6316 52.0014C67.4518 57.1475 71.0031 60.6559 76.7707 62.2907C77.1329 68.4831 74.8001 73.686 69.186 77.3195C63.0563 81.2885 56.4508 81.6126 49.9588 78.2037C43.4515 74.7863 40.5908 69.3303 40.8486 62.2708ZM70.6225 48.0921C71.1198 47.5832 71.3991 46.8895 71.8288 46.1986C76.1691 49.1128 77.6332 53.0619 77.1237 57.9066C73.4925 56.5647 71.2303 54.1906 70.113 50.8159C69.7815 49.8122 69.7907 48.9394 70.6225 48.0921ZM74.8001 85.3002C74.312 85.9711 73.867 86.1275 73.1395 85.9001C71.5649 85.4111 69.9779 84.9562 68.4371 84.3875C67.9582 84.2084 67.6144 83.708 67.2308 83.3782C68.9558 82.4201 70.6839 81.6411 72.191 80.5919C77.8511 76.6485 80.9667 71.3802 81.3657 64.7984C81.5529 61.7306 81.8231 58.6572 81.7678 55.5923C81.6481 49.056 78.2993 44.3335 71.9792 41.4108C71.5526 41.2146 71.1443 40.9189 70.8313 40.5834C67.6329 37.1802 63.6395 35.4203 58.7406 35.5113C55.4654 35.571 52.1811 35.2867 48.9428 36.1453C40.7105 38.3317 34.9429 45.3002 34.9245 53.2069C34.9214 54.4124 34.8969 55.6207 34.9337 56.8234C34.9521 57.3835 34.8969 58.0715 35.21 58.4752C36.5851 60.255 36.1431 62.268 36.2475 64.207C36.7079 72.9837 41.3459 79.1619 49.8176 82.966C49.9834 83.0399 50.1522 83.111 50.4499 83.2417C49.3848 84.578 47.9913 85.2433 46.3552 85.5504C42.9543 86.1844 39.5533 86.807 36.1554 87.4496C31.9134 88.2542 28.715 90.4434 26.4589 93.8267C26.1397 94.3072 25.845 94.5148 25.2219 94.5034C23.1285 94.4636 21.0321 94.4863 18.8405 94.4863V93.4742C18.8405 78.6501 18.8374 63.8289 18.865 49.0048C18.8681 48.5499 19.0952 47.9358 19.4513 47.6685C32.5334 37.9308 45.6401 28.2243 58.8173 18.461C61.5369 20.4711 64.2503 22.4727 66.9606 24.4799C77.1728 32.0483 87.3757 39.6224 97.6063 47.1681C98.4443 47.7879 98.8341 48.3907 98.828 49.4398C98.7758 59.4419 98.7973 69.4412 98.7973 79.4405V80.6545C95.8475 80.6545 93.2507 81.3966 91.0131 83.2247C89.3648 81.9908 87.5538 81.0838 85.4082 80.8279C80.8684 80.2934 77.3293 81.8202 74.8001 85.3002ZM88.2567 93.858C86.7219 94.4181 86.2124 95.2938 86.6145 96.7637C87.1363 98.6714 87.6888 100.573 88.2935 102.714C87.8484 102.331 87.5814 102.112 87.3266 101.878C84.7544 99.4988 82.173 97.1276 79.6161 94.7337C77.0807 92.3597 77.0285 88.9365 79.4596 86.6563C81.9213 84.3477 85.6875 84.3648 88.2475 86.7758C88.8552 87.3501 89.3064 88.1262 89.6349 88.8825C90.1843 90.1506 90.5772 91.4754 91.0652 92.8544C90.0799 93.2041 89.1652 93.5253 88.2567 93.858ZM102.806 94.2532C99.7856 97.2186 96.6087 100.047 93.4932 102.93C93.4502 102.97 93.3551 102.959 93.1801 102.99C92.643 101.134 92.1058 99.2742 91.541 97.3209C92.5601 96.9485 93.5454 96.6016 94.5245 96.2292C96.0654 95.6435 96.5473 94.7422 96.0531 93.2865C95.3932 91.3361 94.7179 89.3857 94.0058 87.4496C93.7879 86.8582 93.8984 86.5 94.4447 86.1162C96.9249 84.379 100.418 84.6235 102.579 86.7274C104.734 88.8257 104.936 92.1635 102.806 94.2532Z" fill="#133E76"/>
<path d="M32.5697 20.0014C34.0062 18.8784 35.4427 17.7582 36.8792 16.6352C38.2697 17.7923 39.1414 17.798 40.7069 16.6409C45.6088 13.0159 50.5077 9.38519 55.4096 5.75735C58.1323 3.74442 59.5135 3.73305 62.2883 5.78863C78.5781 17.8463 94.8555 29.9154 111.139 41.9817C111.437 42.2006 111.722 42.4366 112.066 42.7038C110.359 44.677 108.671 46.6302 106.94 48.6317C102.944 45.6749 99.0331 42.7806 95.1225 39.8834C83.6519 31.3853 72.1813 22.8844 60.7106 14.3891C59.225 13.2888 58.4085 13.2916 56.9413 14.3777C41.7044 25.6649 26.4645 36.955 11.2276 48.2451C11.0803 48.3531 10.9299 48.4555 10.6904 48.6232C8.97153 46.6359 7.28332 44.6826 5.5552 42.6811C9.87703 39.4826 14.1497 36.3238 18.4194 33.1623C20.2426 31.8118 22.0751 30.4755 23.8708 29.0938C25.2121 28.0645 25.3196 27.2884 24.4509 25.8469C25.9058 24.7722 27.3608 23.6975 28.8126 22.62C29.3252 22.8844 29.8071 23.271 30.3566 23.3933C31.8821 23.7259 33.8097 22.1651 32.5697 20.0014Z" fill="#FFB800" fill-opacity="0.7"/>
<path d="M91.0625 92.8534C90.0772 93.2059 89.1625 93.5244 88.254 93.857C86.7192 94.4171 86.2097 95.2928 86.6118 96.7627C87.1336 98.6704 87.6861 100.572 88.2939 102.716C87.8488 102.33 87.5787 102.111 87.327 101.877C84.7548 99.4978 82.1733 97.1266 79.6165 94.7327C77.0811 92.3587 77.0258 88.9356 79.4599 86.6554C81.9247 84.3467 85.691 84.361 88.2478 86.7748C88.8556 87.3491 89.3068 88.1253 89.6352 88.8844C90.1847 90.1524 90.5806 91.4773 91.0656 92.8534H91.0625Z" fill="#FFB800" fill-opacity="0.7"/>
<path d="M93.1774 102.99C92.6402 101.136 92.1031 99.2766 91.5383 97.3206C92.5543 96.9481 93.5426 96.6012 94.5187 96.2288C96.0627 95.6431 96.5415 94.7418 96.0504 93.2862C95.3905 91.3329 94.7152 89.3854 94 87.4492C93.7821 86.8578 93.8926 86.4996 94.4389 86.1158C96.9221 84.3786 100.412 84.6231 102.573 86.7242C104.731 88.8224 104.93 92.1603 102.8 94.2528C99.7798 97.2182 96.6029 100.047 93.4874 102.93C93.4444 102.97 93.3493 102.958 93.1743 102.987L93.1774 102.99Z" fill="#FFB800" fill-opacity="0.7"/>
<path d="M32.5692 20.0008C33.8093 22.1673 31.8817 23.7282 30.3561 23.3927C29.8067 23.2732 29.3248 22.8837 28.8122 22.6193C28.1338 21.3342 28.2996 20.2993 29.2972 19.6085C30.307 18.9062 31.3169 19.0285 32.5692 20.0008Z" fill="#133E76"/>
<path d="M63.0613 73.1119C62.294 74.0587 60.9465 74.2606 59.8169 73.4787C59.068 72.9612 58.5185 72.9982 57.788 73.5014C56.7075 74.2463 55.3907 74.0559 54.6203 73.1688C53.8191 72.2448 53.9634 70.9966 54.9855 70.1409C56.0752 69.2225 57.3767 68.7904 59.5376 68.7165C60.1914 69.0065 61.4806 69.4301 62.5794 70.1124C63.7213 70.8232 63.8287 72.1652 63.0613 73.1119Z" fill="#133E76"/>
</g>
<defs>
<clipPath id="clip0_194_4399">
<rect width="117.218" height="108.568" fill="white" transform="scale(1.00398)"/>
</clipPath>
</defs>
</svg>
