<svg width="99" height="99" viewBox="0 0 99 99" fill="none" xmlns="http://www.w3.org/2000/svg">
<g clip-path="url(#clip0_194_1947)">
<path d="M0 38.442C0.459674 37.9598 0.865118 37.4106 1.38419 37.0058C16.9098 24.8863 32.4458 12.7797 47.9792 0.670501C49.1283 -0.224278 49.8411 -0.229436 51.0109 0.680815C57.4361 5.68075 63.856 10.6884 70.2759 15.6935C70.6272 15.9668 70.9835 16.2376 71.5258 16.6528C71.5258 16.0597 71.5258 15.6342 71.5258 15.2087C71.5258 13.2464 71.5181 11.2841 71.5284 9.32175C71.5362 7.91125 72.2644 7.1815 73.6693 7.17635C77.246 7.16861 80.82 7.16861 84.3967 7.17635C85.8739 7.17635 86.5918 7.89062 86.5918 9.35785C86.597 15.4047 86.6073 21.4516 86.5789 27.501C86.5763 28.1895 86.8061 28.6046 87.3407 29.0172C90.8606 31.7248 94.3572 34.4607 97.8538 37.1992C99.3077 38.3389 99.3723 39.4374 98.0682 40.7499C96.0952 42.7354 94.0757 44.6797 92.1363 46.7013C91.0904 47.7921 90.0342 48.3981 88.5286 47.3486C88.5286 50.5048 88.5286 53.5218 88.5286 56.5413C88.5286 58.4701 88.5338 60.4015 88.5286 62.3303C88.5235 63.6661 87.7771 64.4938 86.6021 64.4938C85.4271 64.4938 84.6756 63.6686 84.6756 62.3329C84.6705 56.5749 84.686 50.8168 84.6472 45.0588C84.6446 44.6281 84.3812 44.0557 84.0481 43.7952C72.6957 34.9068 61.3226 26.0466 49.9496 17.1839C49.823 17.086 49.6887 16.9983 49.477 16.8487C47.8681 18.0994 46.2463 19.3551 44.6297 20.6161C34.7571 28.3107 24.8844 36.0078 15.0066 43.6947C14.5469 44.0505 14.2861 44.3935 14.2861 45.033C14.3067 61.4046 14.3016 77.7788 14.3016 94.1504V94.9472H19.7221C19.7221 94.6197 19.7221 94.2819 19.7221 93.9442C19.7221 88.2841 19.7169 82.6215 19.7273 76.9614C19.7273 75.8809 20.3548 75.1048 21.2948 74.9423C22.2322 74.7825 23.149 75.275 23.4511 76.1723C23.5699 76.5256 23.5751 76.9279 23.5751 77.3095C23.5828 82.8097 23.5803 88.3099 23.5803 93.8101C23.5803 94.1608 23.5803 94.5115 23.5803 94.9292H84.6731C84.6731 94.5888 84.6731 94.2458 84.6731 93.9055C84.6731 88.3718 84.6731 82.8406 84.6731 77.3069C84.6731 75.9557 85.4013 75.1332 86.5711 75.1177C87.7513 75.1022 88.5235 75.9274 88.526 77.2502C88.5312 82.7839 88.5286 88.315 88.5286 93.8487C88.5286 94.1969 88.5286 94.5424 88.5286 94.9962C90.6591 94.9962 92.7096 94.9962 94.7601 94.9962C95.4677 94.9962 96.1778 94.9885 96.8854 94.9962C97.9442 95.0117 98.7241 95.5403 98.9126 96.4325C99.1141 97.3814 98.7913 98.1396 97.9313 98.6372C97.8228 98.7017 97.7195 98.7791 97.6137 98.8487H0C0 98.0132 0 97.1751 0 96.3397C0.516488 95.2876 1.36095 94.9369 2.52046 94.973C4.64323 95.0401 6.76858 94.9911 8.89392 94.9911C9.39492 94.9911 9.89591 94.9911 10.3917 94.9911V47.4595C8.70024 48.1944 8.26897 48.1093 6.95968 46.8019C5.43604 45.278 3.8969 43.7695 2.39134 42.2275C1.56496 41.3791 0.795392 40.4792 0 39.6024C0 39.2156 0 38.8314 0 38.4446V38.442ZM9.14959 43.2976C9.35618 43.1506 9.56794 43.0114 9.76937 42.8541C22.4337 32.9831 35.0979 23.1096 47.7597 13.2361C49.2032 12.1092 49.774 12.1092 51.2434 13.2541C63.3473 22.6919 75.4512 32.127 87.5551 41.5622C88.3324 42.1681 89.1148 42.7638 89.652 43.179C91.124 41.7143 92.4798 40.3683 93.851 39.0068C79.1492 27.5448 64.3338 15.9978 49.4899 4.42754C34.6073 16.0365 19.7763 27.5964 4.98153 39.1305C6.40445 40.5539 7.74216 41.8897 9.15217 43.3002L9.14959 43.2976ZM75.5054 11.052C75.4692 11.199 75.3995 11.3434 75.3995 11.4904C75.3918 14.0612 75.3737 16.6321 75.4176 19.203C75.4228 19.5124 75.7017 19.8941 75.9625 20.1107C77.1039 21.0493 78.2841 21.9415 79.4514 22.8492C80.4998 23.664 81.5509 24.4737 82.6639 25.335V11.052H75.5054Z" fill="#133E76"/>
<path d="M67.5585 42.1139H31.4301C29.6302 42.1139 28.9975 42.7482 28.9975 44.5455V80.6204C28.9975 82.3687 29.6431 83.0262 31.3604 83.0262C43.4359 83.0262 55.5114 83.0262 67.5869 83.0262C69.3249 83.0262 69.9705 82.3815 69.9705 80.6436C69.9731 74.6302 69.9705 68.6169 69.9705 62.6036V44.5662C69.9705 42.7482 69.3481 42.1139 67.5585 42.1139ZM47.4852 79.1119H32.8737V64.5762H47.4852V79.1119ZM47.4852 60.5819H32.9099V46.0102H47.4852V60.5819ZM66.0529 79.1222H51.457V64.5659H66.0529V79.1222ZM66.0606 60.5665H51.4828V46.0102H66.0606V60.5665Z" fill="#133E76"/>
<path d="M47.4846 64.5769H32.8731V79.1125H47.4846V64.5769Z" fill="#FFB800" fill-opacity="0.7"/>
<path d="M66.0535 64.5656H51.4575V79.1218H66.0535V64.5656Z" fill="#FFB800" fill-opacity="0.7"/>
<path d="M66.0609 46.01H51.4831V60.5662H66.0609V46.01Z" fill="#FFB800" fill-opacity="0.7"/>
<path d="M47.4858 46.01H32.9105V60.5817H47.4858V46.01Z" fill="#FFB800" fill-opacity="0.7"/>
<path d="M19.7216 69.2227C19.7319 68.1397 20.6358 67.2501 21.6972 67.2836C22.7301 67.3146 23.5668 68.1784 23.5772 69.2227C23.5875 70.3032 22.7017 71.2186 21.6481 71.2186C20.5945 71.2186 19.7113 70.3032 19.7216 69.2227Z" fill="#133E76"/>
<path d="M86.6298 68.3668C87.7222 68.3797 88.5537 69.2462 88.5305 70.3421C88.5046 71.4277 87.6266 72.2528 86.5265 72.2167C85.478 72.1832 84.6749 71.3451 84.6749 70.2879C84.6749 69.1946 85.5323 68.354 86.6298 68.3668Z" fill="#133E76"/>
</g>
<defs>
<clipPath id="clip0_194_1947">
<rect width="98.2856" height="98.1451" fill="white" transform="scale(1.00727)"/>
</clipPath>
</defs>
</svg>
