<svg width="84" height="102" viewBox="0 0 84 102" fill="none" xmlns="http://www.w3.org/2000/svg">
<g clip-path="url(#clip0_194_1906)">
<path d="M80.0161 50.4608C77.0301 48.5164 73.2817 49.1459 71.0106 51.9908C69.7945 53.5128 68.6049 55.0561 67.402 56.5914C65.9618 58.4667 64.5347 60.3526 63.0681 62.2067C62.8518 62.4829 62.4667 62.7034 62.1211 62.7751C61.1979 62.9717 60.2562 63.0726 59.3197 63.2081C56.2836 63.7208 53.2501 64.2467 50.2113 64.7408C45.4237 65.519 40.6255 66.2442 35.8457 67.0597C33.7803 67.4129 32.1844 66.8976 30.7442 65.2906C29.7075 64.1325 29.4464 63.1019 29.7866 61.5878C30.4962 58.4295 30.9763 55.2234 31.5355 52.0333C31.6041 51.6454 31.6991 51.1992 31.5751 50.8539C31.1451 49.6453 31.7228 49.0689 32.712 48.5642C34.023 47.8975 35.2786 47.1192 36.5553 46.3861C37.5682 45.9797 38.5864 46.0301 39.4569 46.649C42.1554 48.5748 44.8143 50.5644 47.4864 52.5273C47.9718 52.8594 48.4915 53.1462 48.9372 53.5287C49.7761 54.2459 50.6202 54.3548 51.6384 53.8847C52.7595 53.3667 53.9438 52.9922 55.0992 52.5565C56.1517 52.1501 57.1541 52.3015 58.1037 52.8647C59.2353 53.5367 60.3854 54.1822 61.4748 54.9179C62.4086 55.5501 63.2316 55.5183 64.0494 54.7665C64.3896 53.4092 64.2498 53.0506 63.0602 52.3281C61.852 51.5976 60.6492 50.8565 59.4252 50.1526C57.7054 49.1592 55.8906 49.0184 54.0203 49.6612C53.3213 49.9029 52.6408 50.1898 51.918 50.4687V42.7258C52.9494 42.8586 53.9175 43.0764 54.8882 43.0897C58.1934 43.1375 61.2664 42.3406 63.841 40.1439C65.4263 38.7945 65.938 36.9644 65.297 35.0253C64.6719 33.1287 63.2184 31.9201 61.1847 31.8617C59.8658 31.8219 58.4598 31.9308 57.2306 32.3664C55.3815 33.0198 53.651 34.0186 51.852 34.8792C51.852 32.8525 51.8336 30.6744 51.8758 28.5016C51.8811 28.2917 52.2134 27.965 52.4482 27.9012C56.4735 26.8095 59.9185 24.7005 62.8887 21.7998C65.9117 18.8514 68.5178 15.5895 69.8499 11.4803C71.1029 7.61015 70.2588 4.16234 67.3994 1.98422C66.2889 1.13687 64.9093 0.650781 63.6537 0H60.8892C53.1261 2.54203 49.5835 8.96484 46.5236 15.7569C45.5424 14.4553 44.5716 12.997 43.4321 11.6875C41.0501 8.95687 38.415 6.52375 34.9172 5.28859C29.7391 3.46109 25.8563 6.85843 24.8644 10.3169C24.0072 13.3131 24.9937 15.9747 26.6925 18.3494C30.855 24.1586 36.2757 28.058 43.4611 29.1842V45.7592C42.8122 45.2944 42.2609 44.9012 41.7096 44.5028C39.2353 42.7151 36.6951 42.585 34.0836 44.1947C32.7173 45.0394 31.3429 45.8681 29.9845 46.6969C29.8552 46.6198 29.755 46.5879 29.689 46.5215C26.3073 42.9834 20.4303 44.0061 18.3939 48.6439C17.5735 50.5165 16.6476 52.3494 15.6584 54.137C12.3321 60.172 10.6334 66.6559 10.1084 73.509C9.99502 75.0045 9.76817 76.5664 9.21422 77.9397C6.32581 85.0929 3.31868 92.1931 0.351129 99.3118C-0.210728 100.661 -0.142144 101.02 0.862868 102H2.04989C2.44029 101.469 2.83332 100.937 3.22636 100.409C4.50571 97.2665 5.7745 94.1215 7.06967 90.9872C8.79745 86.8142 10.6228 82.6811 12.2451 78.4656C12.7806 77.0817 12.9547 75.5118 13.0707 74.0111C13.5746 67.5697 15.0596 61.4337 18.2092 55.7494C19.296 53.7917 20.2113 51.7358 21.2111 49.7303C21.7175 48.7183 22.4324 47.9373 23.5693 47.6478C26.4946 46.673 29.0639 49.1486 28.4783 52.4237C27.8215 56.092 27.1251 59.7523 26.4128 63.41C26.2599 64.1936 26.3917 64.8258 26.9272 65.4154C27.8162 66.3876 28.6735 67.389 29.6178 68.4595C29.3013 68.6056 29.0032 68.7411 28.7025 68.8792C27.3229 69.8779 25.88 70.7997 24.5875 71.902C23.6695 72.6882 23.7038 73.6737 24.4107 74.3165C25.1045 74.9461 25.9169 74.8398 26.7268 73.9659C28.7816 71.7453 31.4458 70.7997 34.3052 70.3295C41.6226 69.1236 48.9452 67.9654 56.2678 66.794C58.5363 66.4301 60.8048 66.0689 63.0786 65.7448C63.9095 65.6253 64.5347 65.2826 65.0544 64.6053C67.7054 61.1389 70.3669 57.6831 73.0707 54.2592C73.5455 53.6615 74.2419 53.2445 74.8381 52.7425C76.4128 52.0917 78.0166 52.4051 79.0559 53.5686C80.1665 54.8144 80.388 56.5276 79.573 58.0948C78.2066 60.7298 76.8032 63.3489 75.4131 65.9706C74.3474 67.984 73.2844 69.9948 72.2134 72.0029C70.5859 75.0629 68.0747 77.0498 64.8882 78.285C56.2467 81.6398 47.6157 85.0239 39.0032 88.4451C38.4704 88.6576 37.8294 89.2287 37.708 89.744C36.8666 93.3432 36.1491 96.9717 35.3894 100.589C35.6637 101.06 35.9354 101.53 36.2071 102H37.5893C37.9164 101.283 38.3701 100.597 38.5495 99.8457C39.1826 97.2107 39.7523 94.5625 40.2694 91.9036C40.396 91.2475 40.6861 90.9712 41.2585 90.7481C49.3751 87.5925 57.4706 84.3864 65.5978 81.2626C69.4121 79.7964 72.5827 77.5731 74.5716 73.9154C77.2042 69.0731 79.784 64.2042 82.311 59.3061C83.9491 56.1292 82.9098 52.344 80.0161 50.4608ZM54.482 37.0573C56.2915 35.6761 58.3253 34.8155 60.6492 34.8181C61.4405 34.8181 62.1343 35.089 62.4007 35.8408C62.6961 36.6775 62.4904 37.5036 61.7175 38.0401C58.8528 40.027 55.7481 40.5689 52.4113 39.6525C52.3453 39.5356 52.2794 39.4187 52.2134 39.3045C52.9652 38.5475 53.6458 37.6975 54.482 37.0573ZM67.1092 10.2106C66.4366 12.6464 65.0702 14.7023 63.535 16.6467C60.5305 20.4531 56.8956 23.3909 52.2055 24.828C52.1185 24.8545 52.0209 24.8519 51.8494 24.8731V24.2834C51.9022 24.0709 51.8916 23.808 52.0156 23.6512C55.88 18.7425 59.7576 13.8444 63.6352 8.94625C64.5453 7.74297 65.458 6.54234 66.4471 5.23547C67.6025 6.86906 67.5761 8.51593 67.1092 10.2106ZM54.0335 8.65672C55.363 7.0789 56.9167 5.67109 58.5126 4.36422C59.2591 3.75062 60.3379 3.55672 61.2664 3.17156H63.9702C64.0151 3.26187 64.0573 3.34953 64.0995 3.43984C63.6853 3.94719 63.2712 4.45719 62.8571 4.96453C58.6893 10.2956 54.5215 15.6267 50.3485 20.9631C49.7629 20.6789 49.2406 20.4239 48.6708 20.1476C49.3567 15.7967 51.2295 11.9797 54.0335 8.65672ZM47.7291 23.1705C48.5046 23.1758 48.8581 23.715 48.8581 24.5066C48.8528 32.8365 48.8555 41.1639 48.8555 49.709C48.0536 49.1353 47.3968 48.705 46.8006 48.2056C46.6133 48.0489 46.5052 47.6956 46.5052 47.4326C46.4893 39.7986 46.4893 32.1645 46.4893 24.5305C46.4893 23.6937 46.9272 23.1651 47.7291 23.1705ZM36.2889 18.5698C38.1934 20.4451 40.1322 22.2859 42.0024 24.1958C42.3822 24.5836 42.5194 25.2131 42.7674 25.7337C42.2794 25.7125 41.7597 25.7975 41.3139 25.6541C35.6373 23.8345 31.2401 20.3708 28.3068 15.1194C27.5181 13.7116 27.2174 12.1683 28.014 10.4789C29.0085 11.4484 29.9449 12.3675 30.8892 13.2786C31.7281 14.0887 32.5537 14.1551 33.2105 13.4752C33.8621 12.8031 33.7697 11.9717 32.9573 11.1377C32.042 10.192 31.1319 9.24375 30.1427 8.21578C30.5384 8.12015 30.8945 8.0325 31.2533 7.94484C32.5036 7.52515 33.6537 7.9714 34.7457 8.47609C37.6236 9.79625 39.8816 11.9345 41.7729 14.4155C42.981 15.9986 43.8832 17.8181 44.9146 19.5394C45.3656 20.2964 45.4448 21.0003 44.5769 21.5501C44.4213 21.6511 44.3184 21.8397 44.0019 22.2062C42.9098 21.0348 41.8362 19.882 40.7626 18.7319C39.9555 17.9562 39.1536 17.1753 38.3411 16.4076C37.5392 15.6506 36.7188 15.5922 36.0726 16.2323C35.4026 16.8911 35.4685 17.7597 36.2889 18.5698Z" fill="#133E76"/>
<path d="M40.763 18.7319C39.9558 17.9562 39.1539 17.1753 38.3415 16.4077C37.5396 15.6506 36.7192 15.5948 36.073 16.2323C35.4029 16.8937 35.4689 17.7623 36.2919 18.5698C38.1938 20.4451 40.1352 22.2859 42.0028 24.1958C42.3826 24.5836 42.5198 25.2131 42.7678 25.7337C42.2824 25.7125 41.7627 25.7975 41.3143 25.6541C35.6377 23.8345 31.2431 20.3708 28.3072 15.1194C27.5185 13.7116 27.2178 12.1683 28.0144 10.4762C29.0115 11.4458 29.9453 12.3648 30.8896 13.2759C31.7285 14.0887 32.5541 14.1552 33.2136 13.4752C33.8651 12.8031 33.7701 11.9717 32.9603 11.135C32.045 10.192 31.1349 9.24109 30.1458 8.21312C30.5414 8.1175 30.9002 8.02984 31.2563 7.94219C31.6757 8.09094 32.1611 8.15203 32.5066 8.40437C35.9938 10.957 38.8506 14.0702 40.7103 18.0386C40.8026 18.2352 40.7498 18.4981 40.7656 18.7292L40.763 18.7319Z" fill="#FFB800" fill-opacity="0.7"/>
<path d="M62.8579 4.96545C58.6902 10.2965 54.525 15.625 50.352 20.964C49.7664 20.6798 49.2441 20.4248 48.6717 20.1459C49.3575 15.795 51.2304 11.9779 54.0344 8.65498C55.3639 7.07982 56.9202 5.67201 58.5161 4.36248C59.2626 3.75154 60.3414 3.55498 61.27 3.17248C61.8002 3.77013 62.3304 4.36779 62.8579 4.96545Z" fill="#FFB800" fill-opacity="0.7"/>
<path d="M48.8541 49.7091C48.0549 49.1327 47.398 48.705 46.7992 48.2057C46.612 48.0489 46.5038 47.6957 46.5038 47.4327C46.488 39.7986 46.4906 32.1646 46.488 24.5305C46.488 23.6911 46.9259 23.1652 47.7278 23.1705C48.5033 23.1758 48.8568 23.715 48.8568 24.5066C48.8515 32.8366 48.8541 41.1639 48.8541 49.7091Z" fill="#FFB800" fill-opacity="0.7"/>
<path d="M63.6352 8.94654C64.5478 7.74592 65.4579 6.54264 66.4471 5.23576C67.5998 6.86935 67.5761 8.51623 67.1092 10.2083C66.4365 12.644 65.0701 14.7 63.5349 16.6444C60.5304 20.4508 56.8981 23.3886 52.2081 24.8256C52.121 24.8522 52.0234 24.8495 51.852 24.8734C51.852 24.6583 51.852 24.4723 51.852 24.2837C52.1184 24.1695 52.4112 24.0925 52.6486 23.9358C56.3521 21.4973 59.3381 18.3497 61.6568 14.5645C62.7093 12.8459 63.5587 11.0264 63.6352 8.94654Z" fill="#FFB800" fill-opacity="0.7"/>
<path d="M40.7632 18.732C40.7474 18.5009 40.8001 18.2379 40.7078 18.0413C38.8481 14.0729 35.9914 10.9624 32.5042 8.40713C32.1586 8.15479 31.6733 8.09369 31.2538 7.94494C32.5068 7.52526 33.6543 7.97151 34.749 8.47354C37.6242 9.79635 39.8822 11.9346 41.7735 14.4129C42.9816 15.996 43.8838 17.8156 44.9151 19.5368C45.3688 20.2938 45.4453 20.9977 44.5801 21.5502C44.4219 21.6512 44.3216 21.8398 44.0051 22.2063C42.913 21.0349 41.8394 19.8821 40.7658 18.732H40.7632Z" fill="#FFB800" fill-opacity="0.1"/>
<path d="M52.2174 39.3046C52.9692 38.5502 53.6497 37.7002 54.4859 37.06C56.2955 35.6761 58.3292 34.8182 60.6532 34.8208C61.4445 34.8208 62.1383 35.0917 62.4047 35.8435C62.7001 36.6802 62.4944 37.5036 61.7215 38.0402C58.8568 40.0271 55.7521 40.5689 52.4179 39.6552C52.3519 39.5383 52.286 39.4214 52.22 39.3046H52.2174Z" fill="#FFB800" fill-opacity="0.7"/>
<path d="M63.6352 8.94583C63.556 11.0257 62.7093 12.8452 61.6568 14.5638C59.3381 18.349 56.3495 21.4966 52.6486 23.935C52.4086 24.0918 52.1184 24.1688 51.852 24.283C51.9047 24.0679 51.8942 23.8049 52.0182 23.6482C55.8826 18.7394 59.7628 13.8413 63.6378 8.94317L63.6352 8.94583Z" fill="#FFB800" fill-opacity="0.1"/>
<path d="M62.8568 4.96545C62.3265 4.36779 61.7963 3.77013 61.2688 3.17248C62.1709 3.17248 63.0704 3.17248 63.9726 3.17248C64.0148 3.26013 64.0596 3.35045 64.1018 3.4381C63.6877 3.94545 63.2735 4.45545 62.8568 4.96279V4.96545Z" fill="#FFB800" fill-opacity="0.7"/>
<path d="M44.3389 59.4465C44.3389 60.2886 43.6531 60.9765 42.838 60.9553C42.0282 60.9314 41.3318 60.1956 41.3634 59.3907C41.3951 58.6045 42.0519 57.9723 42.8459 57.9617C43.7111 57.9484 44.3415 58.5753 44.3389 59.4465Z" fill="#133E76"/>
<path d="M39.3759 54.9233C39.3548 55.7308 38.727 56.3657 37.9357 56.3763C37.1048 56.3869 36.4163 55.7122 36.4137 54.8808C36.4084 54.0494 37.0863 53.3827 37.9251 53.3907C38.7772 53.3986 39.3971 54.0547 39.3759 54.9233Z" fill="#133E76"/>
</g>
<defs>
<clipPath id="clip0_194_1906">
<rect width="83.0475" height="101.949" fill="white" transform="scale(1.0005)"/>
</clipPath>
</defs>
</svg>
