<svg width="106" height="98" viewBox="0 0 106 98" fill="none" xmlns="http://www.w3.org/2000/svg">
<g clip-path="url(#clip0_194_1962)">
<path d="M104.723 36.3625C100.352 33.1161 95.9829 29.862 91.5895 26.6412C91.0789 26.268 90.8747 25.9076 90.8774 25.3018C90.905 20.3938 90.8968 15.4834 90.8912 10.5754C90.8912 8.96502 90.124 8.24417 88.3937 8.24162C85.6423 8.23395 82.8881 8.23395 80.1366 8.24162C78.3401 8.24673 77.5894 8.94202 77.5729 10.6368C77.5591 12.1347 77.5729 13.6327 77.5673 15.1306C77.5673 15.4322 77.537 15.7339 77.5121 16.194C74.976 14.3152 72.5695 12.5361 70.163 10.7518C66.2166 7.82751 62.3171 4.84697 58.299 2.00702C57.0709 1.14046 55.5227 0.659894 54.1235 0.00294821H51.2314C46.8903 1.64404 43.8188 4.9211 40.1428 7.41852C37.9847 8.88578 35.9425 10.4988 33.8507 12.0478C32.6557 12.9348 32.4819 13.6685 33.158 14.9593C34.4081 15.9997 35.1919 16.0048 36.5993 14.9619C41.0066 11.7027 45.4111 8.43844 49.8184 5.17928C52.2663 3.36948 53.5081 3.35925 56.0057 5.20739C70.6487 16.0483 85.2863 26.8994 99.9238 37.748C100.191 37.9448 100.448 38.1544 100.757 38.3947C99.2228 40.1687 97.7022 41.9274 96.1485 43.7269C92.5554 41.0685 89.0367 38.4663 85.5236 35.8615C75.2078 28.221 64.8975 20.5779 54.5817 12.9399C53.246 11.9507 52.5119 11.9532 51.1955 12.9297C37.4935 23.0779 23.7943 33.2286 10.095 43.3793C9.96258 43.4764 9.82735 43.5659 9.60933 43.7167C8.06665 41.9299 6.54881 40.1738 4.99233 38.3742C8.88077 35.4985 12.7223 32.6585 16.5611 29.816C18.1976 28.6018 19.8479 27.4004 21.4623 26.1607C22.6683 25.2353 22.7649 24.5375 21.9839 23.2415C20.7365 22.3238 20.0245 22.3033 18.7743 23.2287C12.8327 27.6177 6.89653 32.0169 0.965901 36.4187C0.612657 36.682 0.320127 37.0143 0 37.3134V38.6529C2.58033 41.6717 5.13859 44.706 7.74928 47.6993C8.48889 48.548 9.5431 48.6144 10.5228 47.9779C11.2486 47.5076 11.9247 46.9708 12.8078 46.3292V86.3006C12.8078 88.1513 13.4757 88.7802 15.4461 88.7827H21.8956C21.8956 91.1395 21.8956 93.4273 21.8956 95.7126C21.8956 97.0469 22.5634 97.8598 23.728 97.9646C24.9865 98.0771 25.8089 97.4023 26.06 96.0577C26.1014 93.798 25.911 91.5102 26.2339 89.2863C26.7665 85.5951 29.6945 83.0031 33.6327 82.2899C36.6573 81.7403 39.6764 81.1626 42.7094 80.6463C43.0184 80.5952 43.5124 80.7767 43.7194 81.0067C45.8527 83.3635 48.5268 84.749 51.8523 85.0021C55.7435 85.2986 59.0165 84.1023 61.6024 81.4106C62.2123 80.7741 62.7256 80.4086 63.6666 80.7306C64.2959 80.9454 64.9858 81.0093 65.684 81.1447C65.6398 84.1943 67.0583 86.5486 69.3406 88.5884C72.0645 91.0219 74.689 93.55 77.3548 96.0372C79.0272 97.6425 81.0059 98.4554 83.3903 97.7346C84.2707 97.4687 85.1455 96.9626 85.8134 96.3644C88.9263 93.5705 92.0062 90.7408 95.0198 87.8548C99.4602 83.6064 98.7371 77.3462 93.5047 73.9516C93.248 73.7854 92.9803 73.425 92.9803 73.154C92.9555 64.3249 92.961 55.4957 92.9693 46.6666C92.9693 46.618 93.0217 46.5669 93.1018 46.4289C93.7448 46.9018 94.3657 47.3772 95.006 47.8271C96.1927 48.6553 97.2469 48.5914 98.1659 47.5434C100.556 44.8261 102.924 42.0935 105.261 39.3405C106.152 38.295 105.929 37.2572 104.72 36.3625H104.723ZM86.6799 22.9705C85.852 22.3596 85.1345 21.6719 84.2734 21.2272C82.1595 20.1357 81.4337 18.561 81.7428 16.3627C81.936 14.9926 81.7787 13.5815 81.7787 12.1398H86.6799V22.9705ZM47.1967 78.8007C47.928 77.9418 48.571 77.1213 49.2968 76.3672C49.5148 76.1422 49.9619 76.0093 50.3096 76.0017C52.0151 75.9659 53.7262 76.0119 55.4317 75.971C55.9643 75.9582 56.2844 76.0349 56.6073 76.4771C57.1979 77.2849 57.9099 78.0159 58.5777 78.7879C55.4372 82.0675 50.3731 82.0752 47.1967 78.8007ZM35.5203 48.7167C35.5203 48.7167 35.5231 48.7141 35.5203 48.7141C35.5148 48.461 35.5148 48.208 35.5231 47.96C35.5231 47.8654 35.5258 47.7734 35.5341 47.6814C35.5341 47.6226 35.5369 47.5638 35.5424 47.505C35.5451 47.4207 35.5507 47.3363 35.5589 47.252C35.5617 47.2162 35.5645 47.1829 35.5672 47.1471C35.5755 47.05 35.5838 46.9529 35.5948 46.8557C35.6059 46.7509 35.6169 46.6461 35.6307 46.5439C35.6473 46.4161 35.6666 46.2883 35.6859 46.163C35.7162 45.9713 35.7521 45.7796 35.7908 45.593C35.8101 45.5035 35.8294 45.4166 35.8487 45.3297C35.8763 45.2095 35.9039 45.0894 35.937 44.9718C35.9674 44.8517 36.0005 44.7341 36.0364 44.6191C36.1412 44.2637 36.2627 43.9187 36.4007 43.5787C36.4282 43.5071 36.4586 43.4355 36.4917 43.364C36.5166 43.3052 36.5414 43.2489 36.5662 43.1927C36.6021 43.1083 36.6407 43.0265 36.6821 42.9447C36.7898 42.7172 36.9084 42.4948 37.0326 42.275C37.1044 42.1498 37.1789 42.0245 37.2562 41.9018C37.27 41.8762 37.2865 41.8532 37.3003 41.8302C37.3583 41.7357 37.419 41.6436 37.4825 41.5516C37.5073 41.5133 37.5349 41.4749 37.5625 41.4366C37.6342 41.3292 37.7115 41.2219 37.7916 41.1145C37.9765 40.8665 38.1724 40.6211 38.3821 40.3809C38.4787 40.2709 38.5781 40.1636 38.6774 40.0562C38.6995 40.0307 38.7243 40.0077 38.7464 39.9821C38.8458 39.8798 38.9451 39.7776 39.0472 39.6779C39.1631 39.5629 39.2846 39.4504 39.406 39.3379C39.6212 39.1411 39.842 38.9519 40.0766 38.7653C40.1318 38.7168 40.1897 38.6733 40.2477 38.6273C40.325 38.5659 40.405 38.5072 40.485 38.4458C40.5402 38.4049 40.5982 38.3615 40.6561 38.318C40.7776 38.2311 40.899 38.1442 41.0259 38.0573C43.2089 36.5593 45.6788 35.7516 48.4082 35.7746C50.707 35.795 53.0224 35.7516 55.2937 36.0149C57.3966 36.2577 59.0717 37.431 60.4737 38.911C60.8683 39.3303 60.8793 39.6881 60.6254 40.1764C59.4167 42.4948 57.4462 43.6579 54.6617 43.7116C52.5698 43.7525 50.4531 43.6912 48.3944 43.9826C44.1941 44.573 41.0149 46.7305 38.6912 49.9999C38.3159 50.5316 38.0234 51.1374 37.5515 51.5771C37.2479 51.8582 36.6325 52.0781 36.2461 51.9886C35.937 51.917 35.6307 51.3598 35.5617 50.9815C35.5175 50.7284 35.5037 50.4728 35.5037 50.212C35.5037 50.0229 35.5093 49.8363 35.5175 49.6471C35.5231 49.55 35.5258 49.4554 35.5286 49.3583C35.5313 49.2637 35.5313 49.1717 35.5313 49.0771C35.5258 48.9569 35.5203 48.8368 35.5203 48.7167ZM36.7263 55.9865C39.2763 55.8894 40.6755 54.4426 41.8207 52.6328C44.0589 49.0899 47.4147 47.4513 51.844 47.5766C54.245 47.6456 56.6708 47.73 59.0082 46.7535C60.6448 51.3802 63.8377 54.5346 69.0233 56.0044C69.3489 61.5718 67.2515 66.2497 62.204 69.5166C56.6928 73.085 50.7539 73.3764 44.9171 70.3115C39.0665 67.239 36.4945 62.3336 36.7263 55.9865ZM63.4955 43.2387C63.9426 42.7811 64.1938 42.1574 64.5801 41.5363C68.4823 44.1564 69.7987 47.707 69.3406 52.0627C66.0759 50.8562 64.042 48.7218 63.0374 45.6876C62.7394 44.7852 62.7477 44.0005 63.4955 43.2387ZM67.2515 76.6918C66.8127 77.2951 66.4126 77.4357 65.7585 77.2312C64.3428 76.7915 62.916 76.3825 61.5306 75.8713C61.1001 75.7102 60.791 75.2604 60.4461 74.9638C61.997 74.1024 63.5507 73.402 64.9058 72.4587C69.9947 68.9133 72.7958 64.1766 73.1545 58.259C73.3229 55.5008 73.5658 52.7376 73.5161 49.982C73.4084 44.1053 70.3976 39.8594 64.7153 37.2316C64.3317 37.0552 63.9647 36.7894 63.6832 36.4878C60.8076 33.428 57.2172 31.8457 52.8127 31.9275C49.8681 31.9811 46.9152 31.7255 44.0037 32.4975C36.6021 34.4632 31.4166 40.7285 31.4 47.8373C31.3973 48.9212 31.3752 50.0075 31.4083 51.0888C31.4249 51.5924 31.3752 52.211 31.6567 52.574C32.8931 54.1742 32.4957 55.984 32.5895 57.7273C33.0034 65.6183 37.1734 71.173 44.7902 74.5932C44.9392 74.6596 45.091 74.7235 45.3587 74.8411C44.4011 76.0426 43.1482 76.6407 41.6772 76.9168C38.6195 77.4868 35.5617 78.0466 32.5067 78.6243C28.6928 79.3477 25.8171 81.316 23.7887 84.3579C23.5017 84.7899 23.2368 84.9765 22.6766 84.9663C20.7945 84.9305 18.9096 84.9509 16.9391 84.9509V84.0409C16.9391 70.7129 16.9364 57.3873 16.9612 44.0592C16.964 43.6503 17.1682 43.0981 17.4883 42.8578C29.2502 34.1028 41.0342 25.3759 52.8817 16.5979C55.3268 18.4051 57.7664 20.2047 60.2032 22.0094C69.3848 28.814 78.5581 35.6237 87.7562 42.4079C88.5096 42.9652 88.8601 43.5071 88.8546 44.4503C88.8077 53.4431 88.827 62.4333 88.827 71.4235V72.515C86.1749 72.515 83.8402 73.1822 81.8283 74.8258C80.3464 73.7164 78.7181 72.901 76.7891 72.6709C72.7075 72.1903 69.5255 73.563 67.2515 76.6918ZM79.3501 84.386C77.9703 84.8896 77.5121 85.6769 77.8737 86.9985C78.3428 88.7137 78.8396 90.4238 79.3832 92.3486C78.9831 92.0035 78.743 91.8067 78.5139 91.5971C76.2013 89.4575 73.8804 87.3257 71.5815 85.1733C69.302 83.0389 69.2551 79.9612 71.4408 77.9111C73.6541 75.8355 77.0402 75.8508 79.3418 78.0185C79.8883 78.5349 80.2939 79.2327 80.5892 79.9127C81.0832 81.0527 81.4365 82.2439 81.8753 83.4837C80.9894 83.7981 80.167 84.0869 79.3501 84.386ZM92.4312 84.7413C89.7156 87.4075 86.8593 89.9509 84.0582 92.5429C84.0195 92.5787 83.934 92.5685 83.7767 92.5966C83.2937 90.9274 82.8108 89.2556 82.303 87.4995C83.2192 87.1646 84.1051 86.8528 84.9855 86.5179C86.3708 85.9913 86.8041 85.181 86.3598 83.8722C85.7664 82.1187 85.1593 80.3651 84.5191 78.6243C84.3231 78.0926 84.4225 77.7706 84.9137 77.4255C87.1436 75.8636 90.2841 76.0835 92.2269 77.9751C94.1643 79.8615 94.3464 82.8625 92.4312 84.7413Z" fill="#133E76"/>
<path d="M29.2825 17.9832C30.5741 16.9735 31.8656 15.9664 33.1572 14.9567C34.4073 15.997 35.1911 16.0021 36.5985 14.9618C41.0058 11.7026 45.4103 8.43832 49.8176 5.17659C52.2654 3.36679 53.5073 3.35657 56.0021 5.20471C70.6479 16.0456 85.2827 26.8967 99.923 37.7453C100.191 37.9421 100.447 38.1543 100.756 38.3945C99.222 40.1686 97.7042 41.9247 96.1477 43.7242C92.5545 41.0658 89.0387 38.4636 85.5228 35.8588C75.2097 28.2183 64.8967 20.5752 54.5836 12.9372C53.2479 11.948 52.5138 11.9505 51.1947 12.927C37.4954 23.0752 23.7935 33.2259 10.0942 43.3766C9.96176 43.4737 9.82653 43.5658 9.61127 43.7166C8.06583 41.9298 6.54799 40.1737 4.99427 38.3741C8.87995 35.4984 12.7215 32.6584 16.5602 29.8159C18.1995 28.6017 19.8471 27.4003 21.4615 26.158C22.6675 25.2326 22.7641 24.5348 21.9831 23.2388C23.2912 22.2725 24.5993 21.3063 25.9046 20.3375C26.3655 20.5752 26.7988 20.9228 27.2928 21.0328C28.6644 21.3318 30.3975 19.9285 29.2825 17.9832Z" fill="#FFB800" fill-opacity="0.7"/>
<path d="M81.8738 83.4831C80.988 83.8 80.1656 84.0863 79.3487 84.3854C77.9688 84.889 77.5107 85.6763 77.8722 86.9978C78.3414 88.7131 78.8382 90.4232 79.3846 92.3506C78.9844 92.0029 78.7416 91.8061 78.5153 91.5965C76.2026 89.4569 73.8817 87.325 71.5829 85.1727C69.3033 83.0383 69.2537 79.9606 71.4421 77.9105C73.6582 75.8349 77.0443 75.8477 79.3432 78.0179C79.8896 78.5342 80.2953 79.2321 80.5906 79.9146C81.0846 81.0547 81.4406 82.2459 81.8766 83.4831H81.8738Z" fill="#FFB800" fill-opacity="0.7"/>
<path d="M83.775 92.596C83.292 90.9294 82.8091 89.2576 82.3013 87.4989C83.2147 87.1641 84.1034 86.8522 84.981 86.5173C86.3691 85.9908 86.7996 85.1804 86.358 83.8717C85.7647 82.1156 85.1576 80.3645 84.5146 78.6238C84.3186 78.0921 84.418 77.77 84.9092 77.4249C87.1418 75.8631 90.2796 76.0829 92.2224 77.9719C94.1625 79.8584 94.3419 82.8594 92.4267 84.7408C89.7111 87.4069 86.8548 89.9503 84.0537 92.5423C84.015 92.5781 83.9295 92.5679 83.7722 92.5935L83.775 92.596Z" fill="#FFB800" fill-opacity="0.7"/>
<path d="M29.2826 17.9829C30.3976 19.9308 28.6645 21.3341 27.2929 21.0325C26.7989 20.9251 26.3656 20.5749 25.9047 20.3372C25.2948 19.1818 25.4439 18.2513 26.3408 17.6302C27.2487 16.9988 28.1567 17.1087 29.2826 17.9829Z" fill="#133E76"/>
<path d="M56.6972 65.7329C56.0073 66.5841 54.7958 66.7656 53.7802 66.0626C53.1068 65.5974 52.6128 65.6306 51.956 66.0831C50.9846 66.7528 49.8007 66.5815 49.108 65.784C48.3877 64.9532 48.5174 63.8311 49.4364 63.0616C50.4161 62.236 51.5862 61.8474 53.529 61.781C54.1169 62.0417 55.2759 62.4226 56.2639 63.0361C57.2905 63.6751 57.3871 64.8817 56.6972 65.7329Z" fill="#133E76"/>
</g>
<defs>
<clipPath id="clip0_194_1962">
<rect width="105.143" height="97.3843" fill="white" transform="scale(1.00632)"/>
</clipPath>
</defs>
</svg>
