<svg width="103" height="103" viewBox="0 0 103 103" fill="none" xmlns="http://www.w3.org/2000/svg">
<g clip-path="url(#clip0_194_1933)">
<path d="M2.35682 73.1982L10.2566 65.6886L36.5945 91.4118L30.4011 100.982L26.6722 100.466L20.4146 95.2189L13.889 88.5316L1.22905 75.6673L2.35682 73.1982Z" fill="#FFB800" fill-opacity="0.7"/>
<path d="M51.7832 -0.00048966C52.8145 0.708818 53.0717 1.70024 53.0395 2.92003C52.9672 5.65785 53.0288 8.40104 52.994 11.1415C52.9806 12.1921 52.26 12.939 51.3037 13.0599C50.275 13.1889 49.3321 12.6085 49.0642 11.6359C48.9785 11.3216 48.9865 10.975 48.9838 10.6445C48.9785 7.97116 49.0267 5.29514 48.9597 2.62449C48.9303 1.41544 49.316 0.555672 50.3795 0.00219711H51.7832V-0.00048966Z" fill="#133E76"/>
<path d="M100.297 69.4923C99.1771 68.3397 98.0386 67.2059 96.8894 66.0828C95.1723 64.4063 93.04 63.4471 90.7818 64.2451C88.8263 64.9329 87.9155 64.0597 86.8011 62.8668C85.3063 61.2601 83.7044 59.7501 82.1159 58.1676C84.0821 56.1015 84.9286 53.7908 84.2294 51.0933C83.5222 48.3689 81.6632 46.7193 78.9603 45.924C79.3889 43.9358 79.196 42.0792 78.162 40.3597C77.1306 38.6428 75.5796 37.6165 73.667 37.0952C74.0527 35.1017 73.9322 33.2424 72.8767 31.5202C71.832 29.8141 70.289 28.7878 68.4139 28.2611C68.4273 28.0381 68.4246 27.9038 68.446 27.7722C69.172 23.7689 66.8869 20.2734 62.9464 19.4539C62.041 19.2632 61.082 19.3464 60.1712 19.1825C55.5128 18.3416 50.8678 17.4335 46.2094 16.6059C44.6744 16.3319 43.1046 16.3695 41.7786 17.3314C41.2134 17.7398 40.75 17.8472 40.0803 17.7021C36.3755 16.8988 32.7565 19.11 31.8778 22.8016C31.5992 23.9704 31.7091 25.2305 31.634 26.5416C29.8821 27.036 28.3418 28.0731 27.3185 29.806C26.3006 31.5283 26.1131 33.3794 26.5604 35.3247C24.1522 35.999 22.427 37.3854 21.5457 39.6611C20.6724 41.9099 20.9859 44.0997 22.1993 46.1765C19.7509 47.2512 18.1919 48.9439 17.6775 51.5259C17.1525 54.1482 18.1195 56.2922 19.834 58.138C19.7268 58.2858 19.6947 58.3476 19.6491 58.3933C17.7338 60.3116 15.8051 62.2166 13.9112 64.1564C13.4424 64.6346 13.0566 64.7959 12.3601 64.5621C9.90101 63.7292 7.66422 64.2881 5.76496 66.0076C4.38002 67.265 3.0701 68.6138 1.79231 69.9813C-0.570382 72.5123 -0.607885 76.4779 1.73606 79.0277C3.23082 80.6505 4.80059 82.2142 6.42126 83.708C6.85255 84.103 7.67762 84.4147 8.1973 84.2803C8.80539 84.1218 9.45901 83.5307 9.76707 82.953C10.1394 82.2518 9.86083 81.4511 9.2581 80.8493C7.83834 79.428 6.40519 78.0228 5.00954 76.58C3.84695 75.3764 3.72372 73.9201 4.75773 72.8024C5.98194 71.4752 7.27312 70.207 8.58841 68.9684C9.45098 68.1543 10.9163 68.0818 11.7279 68.74C12.2717 69.1807 12.7968 69.6482 13.2924 70.1425C16.965 73.8046 20.6376 77.4667 24.2861 81.1529C27.3453 84.24 30.375 87.3594 33.4181 90.4626C35.0897 92.1714 35.0763 93.324 33.3646 95.0462C32.443 95.9704 31.5269 96.9001 30.5974 97.8163C29.1267 99.2671 27.6962 99.2805 26.239 97.8431C24.9264 96.5508 23.6432 95.2316 22.336 93.9366C21.2698 92.8833 20.0215 92.7974 19.1616 93.6894C18.291 94.5921 18.3794 95.7233 19.4295 96.7872C20.793 98.1709 22.1565 99.5492 23.5414 100.911C26.3649 103.681 30.4018 103.698 33.236 100.946C34.4361 99.7803 35.6121 98.5874 36.78 97.3917C37.739 96.4111 38.3203 95.2396 38.5989 93.8828C38.9579 92.1472 38.5132 90.5781 37.7363 89.0413C39.9544 86.8112 42.2072 84.6618 44.3208 82.3808C45.4271 81.1878 46.6567 80.7284 48.2265 80.7956C50.7606 80.9057 53.3001 80.9165 55.8343 81.0186C56.1477 81.0293 56.5066 81.2738 56.745 81.5103C59.1479 83.8854 61.5213 86.2927 63.9242 88.6705C64.2966 89.0386 64.4117 89.3207 64.1948 89.8661C63.0884 92.6281 63.6108 95.1187 65.6467 97.2655C66.7985 98.4799 67.9906 99.654 69.1907 100.82C71.9016 103.458 75.968 103.539 78.6549 100.871C85.9251 93.6625 93.1605 86.4136 100.361 79.1351C103.11 76.357 103.024 72.3 100.297 69.4923ZM44.3262 20.4319C47.972 21.0848 51.6152 21.7404 55.1538 22.3771C53.4635 24.0913 51.7946 25.7786 50.0213 27.5733C47.4898 26.0177 45.1995 23.9946 44.1467 20.8672C44.2056 20.7221 44.2646 20.577 44.3262 20.4319ZM35.9657 23.3578C36.4639 22.2052 37.4042 21.6436 38.2212 21.6356C39.5954 21.649 40.1794 21.9526 40.5946 22.9575C42.2635 26.9984 45.2503 29.8195 49.1748 31.6465C50.5651 32.294 51.0446 33.4063 50.4204 34.8437C49.6275 36.6681 47.3907 37.1973 45.8263 35.8835C45.1111 35.2844 44.4815 34.5858 43.8199 33.9222C41.4331 31.5363 39.0463 29.1532 36.6675 26.7566C35.7031 25.7866 35.4192 24.6259 35.9657 23.3578ZM31.3876 31.2112C32.5448 30.1661 34.2727 30.1876 35.4594 31.3509C37.9158 33.7637 40.3348 36.2167 42.7671 38.6536C42.8153 38.6992 42.8743 38.7422 42.9037 38.8013C43.1957 39.4166 43.4823 40.0373 43.7717 40.6552C43.5975 41.961 43.035 42.8664 41.9474 43.3823C40.8652 43.8981 39.7186 43.8417 38.8588 43.0088C36.2175 40.4537 33.6083 37.8583 31.0715 35.1957C30.0161 34.0888 30.2625 32.2268 31.3876 31.2112ZM25.9791 40.1662C27.1524 38.9706 28.9767 38.9921 30.2759 40.2683C32.0894 42.0523 33.8842 43.8552 35.663 45.6714C36.5952 46.6199 36.8523 47.7671 36.3059 48.995C35.7996 50.1341 34.8674 50.7118 33.4931 50.9187C32.8154 50.5452 32.0252 50.2873 31.4787 49.7741C29.6276 48.0304 27.8436 46.2168 26.0756 44.3898C24.8112 43.0867 24.8058 41.3618 25.9791 40.1662ZM23.1235 50.2846C24.1763 49.6935 25.2907 49.6908 26.2149 50.4566C27.2087 51.2787 28.1355 52.211 28.9633 53.2051C29.7026 54.0918 29.7294 55.1665 29.1776 56.2089C28.6311 57.2433 27.7659 57.7699 26.5952 57.7834C24.7656 57.7861 21.6931 54.7688 21.6475 52.9284C21.618 51.7516 22.1083 50.8542 23.1235 50.2846ZM67.1388 85.9784C65.0225 83.8343 62.8661 81.6527 61.0606 79.823C61.7812 78.9068 62.5259 77.8697 63.367 76.9159C64.3635 75.7874 64.4841 74.5918 63.5813 73.7213C62.7214 72.8965 61.4008 72.926 60.5007 74.0357C58.6738 76.2925 56.3539 77.1819 53.5278 76.9696C52.3599 76.8809 51.1919 76.7977 50.024 76.7815C48.6926 76.7627 47.3532 76.7359 46.0299 76.8648C44.5271 77.0099 43.2466 77.7058 42.1697 78.802C40.0589 80.9487 37.9212 83.0713 35.7915 85.2019C35.5371 85.4571 35.2692 85.7016 35.0468 85.9112C28.8883 79.6967 22.7699 73.5252 16.5792 67.2784C16.6462 67.2059 16.8552 66.9587 17.0802 66.733C18.8509 64.9544 20.6349 63.1865 22.3949 61.3971C22.7378 61.0478 22.9896 60.935 23.4959 61.1607C28.2293 63.2939 33.0163 60.4836 33.5655 55.282C33.5762 55.1853 33.6137 55.0912 33.6619 54.9085C34.1896 54.8226 34.7468 54.7661 35.2906 54.6399C38.0658 54.0004 40.2062 51.5931 40.5651 48.737C40.6268 48.2427 40.6134 47.8181 41.3447 47.6999C45.1111 47.0873 47.0264 45.1394 47.6827 41.3833C47.7175 41.1872 47.7523 40.9937 47.7979 40.7278C50.4552 40.5746 52.5554 39.4327 53.8627 37.0845C55.1538 34.7631 55.0467 32.4068 53.8037 30.0881C55.7994 28.0569 57.7389 25.9801 59.7989 24.0268C60.924 22.9575 62.7295 23.1966 63.7688 24.3438C64.7841 25.4642 64.7921 27.2214 63.7153 28.3606C62.5661 29.5777 61.3526 30.733 60.1766 31.9232C59.0917 33.0221 58.9952 34.2043 59.9033 35.1017C60.7954 35.9829 61.9848 35.8674 63.0804 34.79C63.6536 34.2258 64.2028 33.6374 64.7895 33.0893C66.019 31.9313 67.8085 31.9286 68.9389 33.0597C70.1015 34.2258 70.1444 35.9561 68.9684 37.2108C67.8245 38.4333 66.6084 39.5859 65.435 40.7788C64.3903 41.8428 64.31 43.1002 65.21 43.9599C66.0887 44.8009 67.2647 44.6934 68.3094 43.6671C68.8585 43.1297 69.3889 42.5682 69.9461 42.0416C71.2989 40.76 73.0455 40.7224 74.2456 41.9287C75.4135 43.1056 75.3653 44.9111 74.0902 46.241C73.075 47.305 72.0115 48.3259 70.9801 49.3792C69.9461 50.4324 69.855 51.5931 70.7149 52.4797C71.5695 53.361 72.7776 53.2965 73.8116 52.3024C74.3179 51.8134 74.7894 51.2895 75.3064 50.8139C76.6324 49.5941 78.3307 49.5834 79.5255 50.7682C80.68 51.9101 80.6693 53.729 79.4451 55.0026C78.0066 56.4991 76.5092 57.9365 75.0626 59.425C74.2215 60.2874 74.1974 61.5153 74.9421 62.3133C75.727 63.1569 76.9512 63.1677 77.9021 62.3321C78.0763 62.1789 78.245 62.015 78.4004 61.8377C78.6227 61.5878 78.829 61.3219 79.0433 61.0612C81.2988 63.3262 83.4204 65.4541 85.4697 67.5095C79.4076 73.6192 73.2625 79.8095 67.1388 85.9784ZM97.0876 76.6714C92.7239 81.0535 88.3494 85.4276 83.9803 89.8043C81.406 92.3836 78.8344 94.9656 76.2547 97.5395C74.6608 99.1301 73.2812 99.1301 71.6873 97.5503C70.6667 96.54 69.6059 95.5594 68.6576 94.482C68.1808 93.9393 67.9102 93.2111 67.4843 92.4588C67.921 91.6931 68.1701 90.9301 68.6737 90.4223C75.7564 83.2755 82.8686 76.1555 89.9915 69.0463C91.3068 67.7325 92.7909 67.7862 94.141 69.1108C95.1455 70.0915 96.1313 71.091 97.1198 72.0877C98.6869 73.6649 98.6815 75.0727 97.0876 76.6714Z" fill="#133E76"/>
<path d="M97.0893 76.6722C92.7255 81.0543 88.351 85.4283 83.9819 89.8051C81.4076 92.3844 78.836 94.9664 76.2563 97.5403C74.6624 99.1309 73.2828 99.1309 71.689 97.551C70.6683 96.5408 69.6075 95.5602 68.6592 94.4828C68.1824 93.94 67.9119 93.2119 67.4859 92.4596C67.9226 91.6939 68.1717 90.9308 68.6753 90.423C75.758 83.2762 82.8702 76.1563 89.9931 69.0471C91.3084 67.7333 92.7925 67.787 94.1426 69.1116C95.1471 70.0923 96.1329 71.0917 97.1214 72.0885C98.6885 73.6657 98.6831 75.0735 97.0893 76.6722Z" fill="#FFB800" fill-opacity="0.7"/>
<path d="M16.2457 2.91509C16.251 1.71411 16.6475 1.08003 17.4163 0.744181C18.2548 0.376094 19.0584 0.513119 19.7201 1.166C20.9577 2.38311 22.1819 3.61903 23.4088 4.84957C24.566 6.00756 25.734 7.15482 26.8751 8.32893C27.8475 9.32573 27.9038 10.4891 27.0653 11.3596C26.2054 12.2543 24.9973 12.2033 23.9713 11.185C21.6247 8.85285 19.2781 6.52074 16.9716 4.15101C16.5805 3.75068 16.3823 3.15959 16.243 2.91509H16.2457Z" fill="#133E76"/>
<path d="M83.946 0.351325C84.4764 0.794642 85.1568 1.16542 85.5452 1.73501C86.0087 2.41476 85.8747 3.26647 85.2881 3.86562C82.7887 6.41805 80.2707 8.95437 77.7178 11.4531C76.9302 12.2215 75.7596 12.1382 75.0015 11.4154C74.23 10.6793 74.1014 9.4138 74.881 8.61314C77.3696 6.05265 79.9064 3.53515 82.4593 1.03376C82.7646 0.735533 83.2736 0.649556 83.946 0.348638V0.351325Z" fill="#133E76"/>
<path d="M11.881 88.5121C11.8944 87.389 12.8105 86.4809 13.9142 86.4997C15.0259 86.5185 15.9019 87.4347 15.8912 88.5712C15.8804 89.7158 14.9991 90.5782 13.8553 90.5648C12.7221 90.5487 11.8649 89.6594 11.8783 88.5121H11.881Z" fill="#133E76"/>
<path d="M68.5642 70.8309C67.4445 70.847 66.5096 69.9442 66.4989 68.8346C66.4882 67.7411 67.4231 66.7926 68.5267 66.7819C69.6197 66.7711 70.5813 67.7088 70.5947 68.7943C70.6081 69.8985 69.6947 70.8121 68.5642 70.8309Z" fill="#133E76"/>
</g>
<defs>
<clipPath id="clip0_194_1933">
<rect width="102.095" height="102.71" fill="white" transform="scale(1.00282)"/>
</clipPath>
</defs>
</svg>
