<svg width="112" height="92" viewBox="0 0 112 92" fill="none" xmlns="http://www.w3.org/2000/svg">
<g clip-path="url(#clip0_194_1974)">
<path d="M107.109 20.5721C92.2677 14.2315 77.4519 7.83183 62.6333 1.44059C58.2493 -0.447793 53.8541 -0.492822 49.4758 1.38712C34.5143 7.81213 19.5612 14.2625 4.60531 20.7044C1.6752 21.9652 -0.0111495 24.1575 5.54867e-05 27.3939C0.0112605 30.636 1.73123 32.803 4.65854 34.0525C6.06757 34.6548 7.4906 35.2204 8.86602 35.8846C9.19377 36.0422 9.56913 36.5347 9.56913 36.8724C9.60835 44.9691 9.60835 53.0658 9.57474 61.1625C9.57474 61.4946 9.2806 61.9646 8.98927 62.1334C6.05076 63.8192 5.22159 66.8924 6.91355 69.8305C7.07322 70.1063 6.99478 70.596 6.88553 70.9393C6.51297 72.1044 5.84067 73.2217 5.70621 74.4037C5.19918 78.8418 4.87704 83.2996 4.45685 87.7462C4.22434 90.1918 5.66419 91.886 8.09287 91.9113C10.0986 91.9339 12.1043 91.9226 14.11 91.917C16.942 91.9085 18.3427 90.3804 18.0961 87.5492C17.8076 84.2678 17.5667 80.9779 17.1885 77.7077C16.8944 75.1692 17.2726 72.4337 15.2501 70.4215C17.281 67.1879 16.7319 63.9318 13.8691 62.3558C13.0847 61.9252 12.9222 61.4467 12.925 60.6447C12.9502 53.3894 12.939 46.137 12.939 38.8818V37.7026C13.3172 37.8265 13.5553 37.8856 13.7766 37.9812C16.2557 39.0394 18.7236 40.1257 21.2167 41.1529C21.889 41.4287 22.1299 41.7777 22.1215 42.5263C22.0795 46.3734 22.0991 50.2206 22.1047 54.0677C22.1047 57.3801 23.1916 60.2957 25.2954 62.8454C27.993 66.1156 31.4469 68.3277 35.2818 69.9459C45.5484 74.2742 56.1904 74.8652 67.0312 72.8896C73.0483 71.7949 78.7096 69.7264 83.581 65.8849C87.6372 62.685 90.0519 58.6437 89.8894 53.26C89.7858 49.7084 89.8922 46.1539 89.853 42.5995C89.8446 41.8368 90.0547 41.4456 90.7886 41.1332C95.9261 38.9691 101.005 36.6613 106.17 34.5788C109.058 33.4137 111.204 31.7223 112 28.5984V26.181C111.288 23.5018 109.697 21.6809 107.109 20.5721ZM13.4769 74.1476C13.9531 78.9009 14.3621 83.6627 14.8019 88.5033H7.77913C7.96962 86.2575 8.1461 84.082 8.33658 81.9094C8.54388 79.5426 8.75677 77.1786 8.97807 74.8146C9.14895 72.974 10.2106 71.9553 11.6449 72.2339C12.7065 72.4393 13.376 73.1204 13.4769 74.1476ZM13.1351 66.943C13.1099 67.9646 12.2191 68.823 11.2275 68.7864C10.2358 68.7498 9.36744 67.8239 9.40106 66.8361C9.43467 65.8089 10.2975 65.0012 11.3339 65.0265C12.3788 65.0518 13.1603 65.8849 13.1351 66.943ZM75.9784 61.3708C76.4434 62.2995 77.4155 62.4711 78.634 61.8464C81.214 60.5237 83.6062 58.9364 85.6175 56.8172C85.7576 56.6709 85.9313 56.5583 86.2562 56.291C85.8192 58.4664 84.7687 60.0593 83.4297 61.4749C80.5781 64.4974 77.0261 66.4421 73.1576 67.7367C61.0449 71.7864 48.9603 71.6992 37.0158 67.0246C33.349 65.5894 30.0015 63.5518 27.5952 60.3126C26.7744 59.2037 26.2338 57.8867 25.5671 56.6625C25.6427 56.6399 25.7184 56.6174 25.7912 56.5921C27.4887 57.8839 29.1023 59.3051 30.8951 60.4448C36.0018 63.6869 41.6911 65.3079 47.6157 66.1747C52.658 66.9121 57.7115 66.9093 62.7733 66.3914C64.1739 66.2479 64.8799 65.5697 64.7566 64.4439C64.6418 63.397 63.8462 62.9017 62.454 63.0396C54.532 63.8304 46.7277 63.352 39.1616 60.6841C34.9625 59.2038 31.0547 57.1972 28.0686 53.744C26.3822 51.7937 25.4326 49.5592 25.4858 46.9363C25.5111 45.6952 25.4886 44.4541 25.4886 43.0807C26.0125 43.2777 26.4131 43.41 26.7996 43.5789C34.1585 46.7449 41.537 49.8716 48.8707 53.0996C53.6636 55.2075 58.3501 55.1962 63.1431 53.0771C70.4712 49.8378 77.8553 46.7252 85.2169 43.5591C85.5755 43.4044 85.9481 43.2721 86.329 43.1258C86.8753 48.9682 86.5083 52.3566 80.5333 56.7722C79.4548 57.5687 78.2446 58.1934 77.0821 58.8773C75.928 59.5584 75.519 60.4505 75.9784 61.3708ZM108.512 28.2129C108.204 29.6988 107.142 30.4615 105.848 31.0159C99.2876 33.833 92.7327 36.6613 86.1778 39.4841C78.0149 42.9991 69.8381 46.4832 61.6948 50.0404C57.8571 51.7178 54.1146 51.7065 50.2741 50.0376C39.4529 45.3322 28.6008 40.6942 17.7628 36.0281C17.4042 35.8733 17.0569 35.6932 16.4042 35.3837C18.5499 34.9981 20.3932 34.6576 22.2392 34.3339C30.5253 32.8818 38.8142 31.438 47.0975 29.9802C47.7474 29.8649 48.2236 29.9634 48.7671 30.4249C50.8988 32.2176 53.4956 32.5947 56.1568 32.6003C58.5602 32.606 60.8769 32.1641 62.877 30.7007C65.4009 28.8517 65.4261 25.9727 62.9526 24.0815C59.5435 21.4727 52.4843 21.422 49.0976 24.028C48.5318 24.4614 47.9407 25.0187 47.6774 25.6547C47.3328 26.4849 46.7614 26.6622 46.0302 26.7888C34.4387 28.7982 22.8527 30.8161 11.2639 32.8283C11.0174 32.8733 10.7261 32.9662 10.5244 32.879C8.62231 32.0487 6.64463 31.3423 4.87143 30.2898C2.7789 29.0515 2.85173 25.8067 4.84902 24.4108C5.29442 24.1012 5.79305 23.8564 6.29167 23.6397C21.0094 17.2991 35.7384 10.9782 50.4478 4.62073C54.0978 3.04473 57.6919 2.96875 61.3531 4.55037C76.1633 10.9472 90.9875 17.3216 105.803 23.71C108.064 24.6838 108.941 26.1556 108.512 28.2129ZM51.1481 26.6706C53.5012 25.0778 58.5238 25.089 60.8517 26.6875C61.5996 27.2025 61.5548 27.6022 60.8208 28.0525C59.3446 28.9558 57.7199 29.2429 56.0391 29.2682C54.2939 29.2513 52.6356 28.9671 51.1285 28.0356C50.3526 27.5543 50.4366 27.1519 51.1481 26.6706Z" fill="#133E76"/>
<path d="M108.513 28.2139C108.205 29.6998 107.143 30.4625 105.849 31.0169C99.2885 33.834 92.7336 36.6623 86.1786 39.4851C78.0158 43.0001 69.8389 46.4842 61.6957 50.0414C57.858 51.7188 54.1155 51.7075 50.275 50.0386C39.4537 45.3332 28.6017 40.6952 17.7636 36.0291C17.4051 35.8743 17.0577 35.6942 16.405 35.3847C18.5508 34.9991 20.394 34.6586 22.24 34.3349C30.5261 32.8828 38.815 31.439 47.0983 29.9812C47.7482 29.8658 48.2244 29.9643 48.7679 30.4259C50.8996 32.2186 53.4964 32.5957 56.1576 32.6013C58.5611 32.607 60.8777 32.1651 62.8778 30.7017C65.4017 28.8527 65.4269 25.9737 62.9534 24.0825C59.5443 21.4737 52.4852 21.423 49.0984 24.029C48.5326 24.4624 47.9415 25.0196 47.6782 25.6557C47.3336 26.4859 46.7622 26.6632 46.0311 26.7898C34.4395 28.7992 22.8535 30.8171 11.2647 32.8293C11.0182 32.8743 10.7269 32.9672 10.5252 32.8799C8.62314 32.0497 6.64546 31.3433 4.87227 30.2908C2.77973 29.0525 2.85256 25.8076 4.84986 24.4118C5.29525 24.1022 5.79388 23.8573 6.2925 23.6406C21.0103 17.3001 35.7393 10.9792 50.4486 4.62172C54.0987 3.04572 57.6927 2.96974 61.3539 4.55136C76.1641 10.9482 90.9884 17.3226 105.804 23.711C108.065 24.6847 108.942 26.1566 108.513 28.2139Z" fill="#FFB800" fill-opacity="0.7"/>
<path d="M68.9148 65.3564C67.7663 65.3507 67.1304 64.9905 66.9315 64.1209C66.7411 63.2851 66.9876 62.5168 67.828 62.2325C69.1641 61.7822 70.534 61.4164 71.9122 61.1209C72.7778 60.9379 73.4164 61.4417 73.6546 62.2635C73.8927 63.0852 73.6293 63.8761 72.8058 64.1772C71.4472 64.6753 70.0381 65.0215 68.912 65.3564H68.9148Z" fill="#133E76"/>
</g>
<defs>
<clipPath id="clip0_194_1974">
<rect width="111.238" height="91.2978" fill="white" transform="scale(1.00685)"/>
</clipPath>
</defs>
</svg>
