<svg width="20" height="20" viewBox="0 0 20 20" fill="none" xmlns="http://www.w3.org/2000/svg">
<path fill-rule="evenodd" clip-rule="evenodd" d="M8.125 17.5C8.125 17.1548 8.40482 16.875 8.75 16.875H11.25C11.5952 16.875 11.875 17.1548 11.875 17.5C11.875 17.8452 11.5952 18.125 11.25 18.125H8.75C8.40482 18.125 8.125 17.8452 8.125 17.5Z" fill="white"/>
<path fill-rule="evenodd" clip-rule="evenodd" d="M9.21457 1.06237C9.43561 0.880059 9.71327 0.780273 9.99996 0.780273C10.2876 0.780273 10.5662 0.880757 10.7877 1.06428C11.5637 1.69628 13.2437 3.26308 14.1731 5.67897C15.116 8.12993 15.2598 11.3894 13.044 15.3077C12.9331 15.5038 12.7252 15.6251 12.5 15.6251H7.49996C7.2766 15.6251 7.07021 15.5059 6.95859 15.3124C4.69753 11.3932 4.83599 8.12891 5.78943 5.67417C6.72797 3.25783 8.42921 1.6914 9.21457 1.06237ZM9.99994 2.03484L9.99977 2.03498C9.29881 2.59575 7.78194 3.99676 6.95463 6.12674C6.16423 8.16169 5.97715 10.9247 7.86556 14.3751H12.1307C13.9792 10.926 13.7897 8.16361 13.0065 6.1278C12.1885 4.00149 10.6955 2.60158 9.99994 2.03484Z" fill="white"/>
<path fill-rule="evenodd" clip-rule="evenodd" d="M6.17442 8.22342C6.43936 8.44468 6.47477 8.83882 6.25352 9.10376L3.80552 12.0351C3.80567 12.0358 3.80582 12.0365 3.80597 12.0371L4.76647 16.3867L7.10993 14.512C7.37946 14.2963 7.77277 14.34 7.9884 14.6096C8.20403 14.8791 8.16033 15.2724 7.8908 15.4881L5.54704 17.3631C5.38141 17.4954 5.18455 17.5837 4.97553 17.6191C4.7665 17.6546 4.5519 17.6363 4.35189 17.566C4.15189 17.4957 3.97305 17.3756 3.8322 17.2172C3.69135 17.0587 3.59312 16.867 3.54675 16.6602L3.54631 16.6582L2.58699 12.314C2.54196 12.1281 2.5413 11.9342 2.58513 11.7479C2.62942 11.5597 2.71784 11.3848 2.84306 11.2375L5.29408 8.30252C5.51533 8.03758 5.90947 8.00217 6.17442 8.22342Z" fill="white"/>
<path fill-rule="evenodd" clip-rule="evenodd" d="M13.7796 8.1605C14.0448 7.93952 14.4389 7.97535 14.6598 8.24053L17.1576 11.2378C17.2827 11.385 17.371 11.5598 17.4153 11.7479C17.4591 11.9342 17.4584 12.1281 17.4134 12.314L16.4541 16.6582L16.4536 16.6602C16.4073 16.867 16.309 17.0587 16.1682 17.2172C16.0273 17.3756 15.8485 17.4957 15.6485 17.566C15.4485 17.6363 15.2339 17.6546 15.0249 17.6191C14.8158 17.5837 14.6193 17.4956 14.4536 17.3633L12.1096 15.4881C11.84 15.2724 11.7963 14.8791 12.012 14.6096C12.2276 14.34 12.6209 14.2963 12.8905 14.512L15.2339 16.3867L16.1944 12.0371C16.1946 12.0364 16.1947 12.0358 16.1949 12.0351L13.6996 9.04076C13.4786 8.77558 13.5144 8.38148 13.7796 8.1605Z" fill="white"/>
<path d="M10 8.4375C10.5178 8.4375 10.9375 8.01777 10.9375 7.5C10.9375 6.98223 10.5178 6.5625 10 6.5625C9.48223 6.5625 9.0625 6.98223 9.0625 7.5C9.0625 8.01777 9.48223 8.4375 10 8.4375Z" fill="white"/>
</svg>
